<svg width="23" height="20" viewBox="0 0 23 20" fill="none" xmlns="http://www.w3.org/2000/svg">
<path d="M0.9 10.075V10.0749C0.900893 9.44596 1.1738 8.84266 1.66093 8.38C2.12769 7.9367 2.76001 7.65167 3.4441 7.571C3.51284 5.79273 4.38095 4.10778 5.86396 2.86626C7.37096 1.60465 9.39396 0.9 11.4984 0.9C13.6028 0.9 15.6258 1.60465 17.1328 2.86626C18.6157 4.10776 19.4839 5.79268 19.5526 7.57092C20.2373 7.65098 20.8704 7.93574 21.3378 8.3791C21.8256 8.84182 22.099 9.44549 22.1 10.0748V10.075V12.4676V12.4677C22.0992 13.0964 21.8265 13.6995 21.3397 14.1621C20.8739 14.6048 20.243 14.8898 19.5603 14.9712V15.2709V15.2711C19.559 16.1087 19.1688 16.9078 18.482 17.4945C17.7958 18.0807 16.8683 18.4085 15.9036 18.4097H15.9034H14.1242C13.9644 18.616 13.7502 18.7855 13.5002 18.9049C13.2336 19.0322 12.9344 19.0989 12.6305 19.0993H12.6304H10.3709C10.1322 19.1055 9.89433 19.0707 9.67109 18.9969C9.44742 18.9229 9.2425 18.811 9.0688 18.6671C8.89507 18.5232 8.7559 18.3501 8.66046 18.1575C8.56498 17.9649 8.51546 17.757 8.51546 17.5465C8.51546 17.336 8.56498 17.1281 8.66046 16.9354C8.7559 16.7428 8.89507 16.5697 9.0688 16.4259C9.2425 16.282 9.44742 16.1701 9.67109 16.0961C9.89434 16.0222 10.1323 15.9875 10.3709 15.9937H12.6367H12.637V16.0937C12.8807 16.0922 13.122 16.1359 13.3442 16.2216C13.5663 16.3074 13.7641 16.4333 13.9239 16.5906C14.0837 16.7479 14.2017 16.9329 14.2698 17.1328C14.327 17.3005 14.3479 17.4755 14.3319 17.649L0.9 10.075ZM0.9 10.075L0.9 12.4676L0.9 12.4677C0.900912 13.1434 1.21559 13.7873 1.76828 14.2594C2.32048 14.7312 3.06625 14.9945 3.84146 14.9953H3.84156H5.22297C5.33187 14.9953 5.43888 14.9584 5.51994 14.8892C5.60149 14.8195 5.65109 14.7213 5.65109 14.6149V7.92766C5.65109 7.82126 5.60149 7.72308 5.51994 7.65341C5.43888 7.58416 5.33187 7.54734 5.22297 7.54734H4.30602C4.37542 5.98492 5.14267 4.4992 6.45886 3.39831C7.80425 2.27301 9.61496 1.64083 11.5033 1.64083C13.3916 1.64083 15.2023 2.27301 16.5477 3.39831C17.8639 4.4992 18.6311 5.98492 18.7005 7.54734H17.782C17.673 7.54734 17.566 7.58416 17.485 7.65341C17.4034 7.72308 17.3538 7.82126 17.3538 7.92766V14.6135C17.3538 14.7199 17.4034 14.8181 17.485 14.8878C17.566 14.957 17.673 14.9939 17.782 14.9939H18.7106V15.2708C18.7098 15.8958 18.4189 16.4988 17.8951 16.9464C17.3708 17.3943 16.6571 17.6483 15.9099 17.649H14.4323L0.9 10.075ZM3.84163 14.2346H4.79484V8.30799H3.84163C3.28404 8.30835 2.75197 8.49788 2.36175 8.83127C1.97203 9.16422 1.75668 9.612 1.75625 10.075C1.75625 10.075 1.75625 10.075 1.75625 10.075C1.75625 10.075 1.75625 10.0751 1.75625 10.0751V12.4675L1.75625 12.4676M3.84163 14.2346L3.84156 14.3346C3.26212 14.3342 2.70652 14.1374 2.29679 13.7874C1.88706 13.4373 1.65668 12.9627 1.65625 12.4676H1.75625M3.84163 14.2346C3.28404 14.2343 2.75197 14.0447 2.36175 13.7113C1.97203 13.3784 1.75668 12.9306 1.75625 12.4676M3.84163 14.2346L1.75625 12.4676M12.6338 18.3401L12.6338 18.34H12.6304H10.3696V18.34L10.3662 18.3401C10.237 18.3445 10.1083 18.3265 9.98801 18.2874C9.86769 18.2484 9.75877 18.1893 9.66747 18.1143C9.57621 18.0394 9.50466 17.9503 9.45619 17.8531C9.40776 17.756 9.38313 17.6522 9.38313 17.5479C9.38313 17.4436 9.40776 17.3398 9.45619 17.2427C9.50466 17.1454 9.57621 17.0564 9.66747 16.9815C9.75877 16.9065 9.86769 16.8474 9.98801 16.8083C10.1083 16.7693 10.237 16.7513 10.3662 16.7557L10.3662 16.7557H10.3696H12.6304V16.7558L12.6338 16.7557C12.763 16.7513 12.8917 16.7693 13.012 16.8083C13.1323 16.8474 13.2412 16.9065 13.3325 16.9815C13.4238 17.0564 13.4953 17.1454 13.5438 17.2427C13.5922 17.3398 13.6169 17.4436 13.6169 17.5479C13.6169 17.6522 13.5922 17.756 13.5438 17.8531C13.4953 17.9504 13.4238 18.0394 13.3325 18.1143C13.2412 18.1893 13.1323 18.2484 13.012 18.2874C12.8917 18.3265 12.763 18.3445 12.6338 18.3401ZM21.2437 12.4675C21.2433 12.9305 21.028 13.3784 20.6382 13.7113C20.248 14.0447 19.716 14.2343 19.1584 14.2346H18.2052V8.30799H19.1584C19.716 8.30835 20.248 8.49788 20.6382 8.83127C21.028 9.16424 21.2433 9.61206 21.2437 10.0751V12.4675Z" fill="#F1EFEB" stroke="#F1EFEB" stroke-width="0.2"/>
</svg>
