<svg width="155" height="50" viewBox="0 0 155 50" fill="none" xmlns="http://www.w3.org/2000/svg">
<path d="M82.184 20.192L80.616 18.608C80.1787 19.0133 79.736 19.3333 79.288 19.568C78.8507 19.8027 78.312 19.92 77.672 19.92C77.192 19.92 76.7493 19.8293 76.344 19.648C75.9493 19.456 75.608 19.2 75.32 18.88C75.0427 18.56 74.824 18.1867 74.664 17.76C74.504 17.3333 74.424 16.88 74.424 16.4V16.368C74.424 15.888 74.504 15.44 74.664 15.024C74.824 14.5973 75.048 14.224 75.336 13.904C75.624 13.584 75.9653 13.3333 76.36 13.152C76.7653 12.9707 77.2027 12.88 77.672 12.88C78.2373 12.88 78.744 12.992 79.192 13.216C79.6507 13.44 80.0987 13.7493 80.536 14.144L82.104 12.336C81.848 12.08 81.5707 11.8453 81.272 11.632C80.9733 11.4187 80.648 11.2373 80.296 11.088C79.944 10.9387 79.5493 10.8213 79.112 10.736C78.6853 10.6507 78.2107 10.608 77.688 10.608C76.824 10.608 76.0347 10.7627 75.32 11.072C74.6053 11.3707 73.992 11.7867 73.48 12.32C72.968 12.8427 72.568 13.456 72.28 14.16C71.992 14.8533 71.848 15.6 71.848 16.4V16.432C71.848 17.232 71.992 17.984 72.28 18.688C72.568 19.392 72.968 20.0053 73.48 20.528C73.992 21.04 74.6 21.4453 75.304 21.744C76.008 22.0427 76.7707 22.192 77.592 22.192C78.136 22.192 78.6267 22.144 79.064 22.048C79.5013 21.9627 79.9013 21.8347 80.264 21.664C80.6373 21.4827 80.9787 21.2693 81.288 21.024C81.5973 20.7787 81.896 20.5013 82.184 20.192ZM92.7645 17.728V17.696C92.7645 17.0773 92.6472 16.5013 92.4125 15.968C92.1778 15.424 91.8525 14.9547 91.4365 14.56C91.0312 14.1547 90.5458 13.84 89.9805 13.616C89.4152 13.3813 88.8018 13.264 88.1405 13.264C87.4685 13.264 86.8498 13.3813 86.2845 13.616C85.7192 13.8507 85.2285 14.1707 84.8125 14.576C84.3965 14.9813 84.0712 15.456 83.8365 16C83.6018 16.5333 83.4845 17.1093 83.4845 17.728V17.76C83.4845 18.3787 83.6018 18.96 83.8365 19.504C84.0712 20.0373 84.3912 20.5067 84.7965 20.912C85.2125 21.3067 85.7032 21.6213 86.2685 21.856C86.8338 22.08 87.4472 22.192 88.1085 22.192C88.7805 22.192 89.3992 22.0747 89.9645 21.84C90.5298 21.6053 91.0205 21.2853 91.4365 20.88C91.8525 20.4747 92.1778 20.0053 92.4125 19.472C92.6472 18.928 92.7645 18.3467 92.7645 17.728ZM90.3645 17.76C90.3645 18.08 90.3112 18.384 90.2045 18.672C90.1085 18.9493 89.9645 19.1947 89.7725 19.408C89.5805 19.6213 89.3458 19.792 89.0685 19.92C88.8018 20.0373 88.4925 20.096 88.1405 20.096C87.7992 20.096 87.4898 20.032 87.2125 19.904C86.9458 19.776 86.7112 19.6053 86.5085 19.392C86.3058 19.168 86.1512 18.9173 86.0445 18.64C85.9378 18.352 85.8845 18.048 85.8845 17.728V17.696C85.8845 17.376 85.9325 17.0773 86.0285 16.8C86.1352 16.512 86.2845 16.2613 86.4765 16.048C86.6685 15.8347 86.8978 15.6693 87.1645 15.552C87.4418 15.424 87.7565 15.36 88.1085 15.36C88.4392 15.36 88.7432 15.424 89.0205 15.552C89.2978 15.68 89.5378 15.856 89.7405 16.08C89.9432 16.2933 90.0978 16.544 90.2045 16.832C90.3112 17.1093 90.3645 17.408 90.3645 17.728V17.76ZM103.534 17.728V17.696C103.534 16.9813 103.422 16.352 103.198 15.808C102.984 15.2533 102.696 14.7893 102.334 14.416C101.971 14.032 101.555 13.744 101.086 13.552C100.616 13.36 100.131 13.264 99.6295 13.264C98.9895 13.264 98.4562 13.3973 98.0295 13.664C97.6135 13.92 97.2562 14.2507 96.9575 14.656V10.32H94.5255V22H96.9575V20.88C97.2455 21.2213 97.5975 21.52 98.0135 21.776C98.4402 22.032 98.9788 22.16 99.6295 22.16C100.142 22.16 100.632 22.064 101.102 21.872C101.571 21.68 101.982 21.3973 102.334 21.024C102.696 20.64 102.984 20.176 103.198 19.632C103.422 19.0773 103.534 18.4427 103.534 17.728ZM101.102 17.728C101.102 18.0907 101.043 18.416 100.926 18.704C100.819 18.992 100.67 19.2427 100.478 19.456C100.286 19.6587 100.062 19.8187 99.8055 19.936C99.5602 20.0427 99.2935 20.096 99.0055 20.096C98.7175 20.096 98.4455 20.0427 98.1895 19.936C97.9442 19.8187 97.7255 19.6587 97.5335 19.456C97.3522 19.2427 97.2028 18.992 97.0855 18.704C96.9788 18.4053 96.9255 18.08 96.9255 17.728V17.696C96.9255 17.344 96.9788 17.024 97.0855 16.736C97.2028 16.4373 97.3522 16.1867 97.5335 15.984C97.7255 15.7707 97.9442 15.6107 98.1895 15.504C98.4455 15.3867 98.7175 15.328 99.0055 15.328C99.2935 15.328 99.5602 15.3867 99.8055 15.504C100.062 15.6107 100.286 15.7707 100.478 15.984C100.67 16.1867 100.819 16.4373 100.926 16.736C101.043 17.024 101.102 17.344 101.102 17.696V17.728ZM113.322 17.952V17.92C113.322 17.312 113.237 16.7307 113.066 16.176C112.906 15.6107 112.65 15.1147 112.298 14.688C111.957 14.2507 111.525 13.904 111.002 13.648C110.48 13.392 109.861 13.264 109.146 13.264C108.517 13.264 107.941 13.3813 107.418 13.616C106.906 13.8507 106.464 14.1707 106.09 14.576C105.717 14.9813 105.424 15.456 105.21 16C105.008 16.544 104.906 17.12 104.906 17.728V17.76C104.906 18.4213 105.018 19.024 105.242 19.568C105.466 20.1013 105.776 20.5653 106.17 20.96C106.576 21.3547 107.05 21.6587 107.594 21.872C108.149 22.0853 108.746 22.192 109.386 22.192C110.165 22.192 110.842 22.0533 111.418 21.776C111.994 21.488 112.485 21.0933 112.89 20.592L111.498 19.36C111.157 19.6693 110.826 19.8933 110.506 20.032C110.186 20.1707 109.824 20.24 109.418 20.24C108.874 20.24 108.416 20.1013 108.042 19.824C107.68 19.536 107.44 19.1147 107.322 18.56H113.29C113.301 18.4427 113.306 18.3413 113.306 18.256C113.317 18.1707 113.322 18.0693 113.322 17.952ZM110.954 17.04H107.29C107.386 16.4853 107.589 16.0427 107.898 15.712C108.218 15.3813 108.634 15.216 109.146 15.216C109.658 15.216 110.069 15.3867 110.378 15.728C110.688 16.0587 110.88 16.496 110.954 17.04ZM120.303 15.808V13.264C119.578 13.232 119.002 13.392 118.575 13.744C118.148 14.096 117.812 14.5653 117.567 15.152V13.424H115.135V22H117.567V18.832C117.567 17.7973 117.796 17.0347 118.255 16.544C118.724 16.0533 119.364 15.808 120.175 15.808H120.303ZM126.638 21.648V19.696C126.265 19.8987 125.865 20 125.438 20C124.916 20 124.654 19.7227 124.654 19.168V15.504H126.67V13.424H124.654V11.232H122.222V13.424H121.198V15.504H122.222V19.568C122.222 20.0693 122.281 20.4853 122.398 20.816C122.526 21.136 122.697 21.3973 122.91 21.6C123.134 21.8027 123.396 21.9413 123.694 22.016C124.004 22.1013 124.345 22.144 124.718 22.144C125.124 22.144 125.481 22.096 125.79 22C126.1 21.9147 126.382 21.7973 126.638 21.648ZM136.255 22V13.424H133.823V18.208C133.823 18.784 133.684 19.2213 133.407 19.52C133.14 19.808 132.772 19.952 132.303 19.952C131.834 19.952 131.471 19.808 131.215 19.52C130.959 19.2213 130.831 18.784 130.831 18.208V13.424H128.399V18.976C128.399 19.968 128.65 20.7467 129.151 21.312C129.663 21.8773 130.383 22.16 131.311 22.16C131.62 22.16 131.898 22.1227 132.143 22.048C132.388 21.9733 132.612 21.872 132.815 21.744C133.018 21.616 133.199 21.472 133.359 21.312C133.53 21.1413 133.684 20.9653 133.823 20.784V22H136.255ZM143.6 15.808V13.264C142.874 13.232 142.298 13.392 141.872 13.744C141.445 14.096 141.109 14.5653 140.864 15.152V13.424H138.432V22H140.864V18.832C140.864 17.7973 141.093 17.0347 141.552 16.544C142.021 16.0533 142.661 15.808 143.472 15.808H143.6ZM152.495 22V17.024C152.495 15.8613 152.191 14.9547 151.583 14.304C150.975 13.6533 150.005 13.328 148.671 13.328C147.946 13.328 147.327 13.392 146.815 13.52C146.303 13.648 145.813 13.8133 145.343 14.016L145.951 15.872C146.346 15.7227 146.719 15.6107 147.071 15.536C147.434 15.4507 147.85 15.408 148.319 15.408C148.927 15.408 149.386 15.5413 149.695 15.808C150.005 16.0747 150.159 16.464 150.159 16.976V17.12C149.85 17.0133 149.53 16.928 149.199 16.864C148.879 16.8 148.501 16.768 148.063 16.768C147.551 16.768 147.082 16.8267 146.655 16.944C146.239 17.0507 145.877 17.216 145.567 17.44C145.269 17.664 145.034 17.9467 144.863 18.288C144.693 18.6293 144.607 19.0347 144.607 19.504V19.536C144.607 19.9627 144.682 20.3413 144.831 20.672C144.991 20.992 145.205 21.264 145.471 21.488C145.738 21.712 146.047 21.8827 146.399 22C146.762 22.1067 147.146 22.16 147.551 22.16C148.149 22.16 148.655 22.064 149.071 21.872C149.487 21.6693 149.845 21.4027 150.143 21.072V22H152.495ZM150.191 18.976C150.191 19.424 150.015 19.7867 149.663 20.064C149.322 20.3413 148.863 20.48 148.287 20.48C147.893 20.48 147.573 20.3893 147.327 20.208C147.082 20.0267 146.959 19.7707 146.959 19.44V19.408C146.959 19.024 147.109 18.7307 147.407 18.528C147.706 18.3253 148.117 18.224 148.639 18.224C148.938 18.224 149.215 18.256 149.471 18.32C149.738 18.3733 149.978 18.448 150.191 18.544V18.976Z" fill="#0D1746"/>
<path d="M82.296 37V25.8H79.864V32.696L74.616 25.8H72.344V37H74.776V29.88L80.2 37H82.296ZM92.1046 37V32.024C92.1046 30.8613 91.8006 29.9547 91.1926 29.304C90.5846 28.6533 89.614 28.328 88.2806 28.328C87.5553 28.328 86.9366 28.392 86.4246 28.52C85.9126 28.648 85.422 28.8133 84.9526 29.016L85.5606 30.872C85.9553 30.7227 86.3286 30.6107 86.6806 30.536C87.0433 30.4507 87.4593 30.408 87.9286 30.408C88.5366 30.408 88.9953 30.5413 89.3046 30.808C89.614 31.0747 89.7686 31.464 89.7686 31.976V32.12C89.4593 32.0133 89.1393 31.928 88.8086 31.864C88.4886 31.8 88.11 31.768 87.6726 31.768C87.1606 31.768 86.6913 31.8267 86.2646 31.944C85.8486 32.0507 85.486 32.216 85.1766 32.44C84.878 32.664 84.6433 32.9467 84.4726 33.288C84.302 33.6293 84.2166 34.0347 84.2166 34.504V34.536C84.2166 34.9627 84.2913 35.3413 84.4406 35.672C84.6006 35.992 84.814 36.264 85.0806 36.488C85.3473 36.712 85.6566 36.8827 86.0086 37C86.3713 37.1067 86.7553 37.16 87.1606 37.16C87.758 37.16 88.2646 37.064 88.6806 36.872C89.0966 36.6693 89.454 36.4027 89.7526 36.072V37H92.1046ZM89.8006 33.976C89.8006 34.424 89.6246 34.7867 89.2726 35.064C88.9313 35.3413 88.4726 35.48 87.8966 35.48C87.502 35.48 87.182 35.3893 86.9366 35.208C86.6913 35.0267 86.5686 34.7707 86.5686 34.44V34.408C86.5686 34.024 86.718 33.7307 87.0166 33.528C87.3153 33.3253 87.726 33.224 88.2486 33.224C88.5473 33.224 88.8246 33.256 89.0806 33.32C89.3473 33.3733 89.5873 33.448 89.8006 33.544V33.976ZM101.749 35.624L100.325 34.184C100.027 34.4613 99.7227 34.6853 99.4134 34.856C99.1147 35.016 98.7627 35.096 98.3574 35.096C98.0267 35.096 97.728 35.0373 97.4614 34.92C97.1947 34.792 96.9654 34.6213 96.7734 34.408C96.5814 34.1947 96.432 33.944 96.3254 33.656C96.2294 33.368 96.1814 33.0587 96.1814 32.728V32.696C96.1814 32.376 96.2294 32.0773 96.3254 31.8C96.432 31.512 96.576 31.2613 96.7574 31.048C96.9494 30.8347 97.168 30.6693 97.4134 30.552C97.6694 30.424 97.952 30.36 98.2614 30.36C98.6987 30.36 99.0614 30.4453 99.3494 30.616C99.648 30.7867 99.936 31.016 100.213 31.304L101.701 29.704C101.296 29.256 100.827 28.904 100.293 28.648C99.76 28.392 99.088 28.264 98.2774 28.264C97.616 28.264 97.008 28.3813 96.4534 28.616C95.9094 28.8507 95.44 29.1707 95.0454 29.576C94.6507 29.9813 94.3414 30.456 94.1174 31C93.8934 31.544 93.7814 32.12 93.7814 32.728V32.76C93.7814 33.368 93.8934 33.944 94.1174 34.488C94.3414 35.0213 94.6507 35.4907 95.0454 35.896C95.44 36.2907 95.9094 36.6053 96.4534 36.84C97.008 37.0747 97.6054 37.192 98.2454 37.192C99.0987 37.192 99.792 37.048 100.325 36.76C100.859 36.4613 101.333 36.0827 101.749 35.624ZM105.946 27.48V25.32H103.386V27.48H105.946ZM105.882 37V28.424H103.45V37H105.882ZM117.03 32.728V32.696C117.03 32.0773 116.913 31.5013 116.678 30.968C116.443 30.424 116.118 29.9547 115.702 29.56C115.297 29.1547 114.811 28.84 114.246 28.616C113.681 28.3813 113.067 28.264 112.406 28.264C111.734 28.264 111.115 28.3813 110.55 28.616C109.985 28.8507 109.494 29.1707 109.078 29.576C108.662 29.9813 108.337 30.456 108.102 31C107.867 31.5333 107.75 32.1093 107.75 32.728V32.76C107.75 33.3787 107.867 33.96 108.102 34.504C108.337 35.0373 108.657 35.5067 109.062 35.912C109.478 36.3067 109.969 36.6213 110.534 36.856C111.099 37.08 111.713 37.192 112.374 37.192C113.046 37.192 113.665 37.0747 114.23 36.84C114.795 36.6053 115.286 36.2853 115.702 35.88C116.118 35.4747 116.443 35.0053 116.678 34.472C116.913 33.928 117.03 33.3467 117.03 32.728ZM114.63 32.76C114.63 33.08 114.577 33.384 114.47 33.672C114.374 33.9493 114.23 34.1947 114.038 34.408C113.846 34.6213 113.611 34.792 113.334 34.92C113.067 35.0373 112.758 35.096 112.406 35.096C112.065 35.096 111.755 35.032 111.478 34.904C111.211 34.776 110.977 34.6053 110.774 34.392C110.571 34.168 110.417 33.9173 110.31 33.64C110.203 33.352 110.15 33.048 110.15 32.728V32.696C110.15 32.376 110.198 32.0773 110.294 31.8C110.401 31.512 110.55 31.2613 110.742 31.048C110.934 30.8347 111.163 30.6693 111.43 30.552C111.707 30.424 112.022 30.36 112.374 30.36C112.705 30.36 113.009 30.424 113.286 30.552C113.563 30.68 113.803 30.856 114.006 31.08C114.209 31.2933 114.363 31.544 114.47 31.832C114.577 32.1093 114.63 32.408 114.63 32.728V32.76ZM126.647 37V31.448C126.647 30.456 126.391 29.6773 125.879 29.112C125.378 28.5467 124.663 28.264 123.735 28.264C123.426 28.264 123.148 28.3013 122.903 28.376C122.658 28.4507 122.434 28.552 122.231 28.68C122.028 28.808 121.842 28.9573 121.671 29.128C121.511 29.288 121.362 29.4587 121.223 29.64V28.424H118.791V37H121.223V32.216C121.223 31.64 121.356 31.208 121.623 30.92C121.9 30.6213 122.274 30.472 122.743 30.472C123.212 30.472 123.575 30.6213 123.831 30.92C124.087 31.208 124.215 31.64 124.215 32.216V37H126.647ZM136.136 37V32.024C136.136 30.8613 135.832 29.9547 135.224 29.304C134.616 28.6533 133.645 28.328 132.312 28.328C131.587 28.328 130.968 28.392 130.456 28.52C129.944 28.648 129.453 28.8133 128.984 29.016L129.592 30.872C129.987 30.7227 130.36 30.6107 130.712 30.536C131.075 30.4507 131.491 30.408 131.96 30.408C132.568 30.408 133.027 30.5413 133.336 30.808C133.645 31.0747 133.8 31.464 133.8 31.976V32.12C133.491 32.0133 133.171 31.928 132.84 31.864C132.52 31.8 132.141 31.768 131.704 31.768C131.192 31.768 130.723 31.8267 130.296 31.944C129.88 32.0507 129.517 32.216 129.208 32.44C128.909 32.664 128.675 32.9467 128.504 33.288C128.333 33.6293 128.248 34.0347 128.248 34.504V34.536C128.248 34.9627 128.323 35.3413 128.472 35.672C128.632 35.992 128.845 36.264 129.112 36.488C129.379 36.712 129.688 36.8827 130.04 37C130.403 37.1067 130.787 37.16 131.192 37.16C131.789 37.16 132.296 37.064 132.712 36.872C133.128 36.6693 133.485 36.4027 133.784 36.072V37H136.136ZM133.832 33.976C133.832 34.424 133.656 34.7867 133.304 35.064C132.963 35.3413 132.504 35.48 131.928 35.48C131.533 35.48 131.213 35.3893 130.968 35.208C130.723 35.0267 130.6 34.7707 130.6 34.44V34.408C130.6 34.024 130.749 33.7307 131.048 33.528C131.347 33.3253 131.757 33.224 132.28 33.224C132.579 33.224 132.856 33.256 133.112 33.32C133.379 33.3733 133.619 33.448 133.832 33.544V33.976ZM140.773 37V25.32H138.341V37H140.773Z" fill="#0079C7"/>
<path d="M48.2584 14.2104L44.7099 11.8418L35.3954 8.50811L32.5568 10.4379L28.7426 9.03406L31.7591 5.87624L29.352 1.66551L28.1219 2.45517L26.1702 4.38499L20.493 4.73595L19.1625 3.42027L19.1621 1.22799L18.2752 0L15.6136 1.14019L12.6862 0.614158L11.9764 2.19312L12.5083 4.47392L10.8228 6.14057L8.51624 4.12294L5.85469 4.82487L4.52413 7.28074L5.76601 9.64933L4.52413 12.6321L0.975644 14.036L0 17.3697L1.33056 20.0014L4.61289 19.8264V21.5811L5.58854 21.6689L10.3789 20.1777L11.4437 21.1424L11.7987 22.7214L18.0087 25.3531L17.92 27.9849L19.7829 28.5991L21.5575 31.1428L21.0255 33.0726L21.4692 35.4412L23.5097 36.3182L24.1308 38.4231L25.0177 38.5982L25.5485 40.4379V42.1046L22.6211 43.6835L21.5563 46.6663L23.5079 48.421L26.1695 50C26.2582 49.5613 32.1133 43.8594 32.1133 43.8594L32.4683 39.8246L37.3473 37.456H40.3638L44.2672 32.1925L45.1541 24.8239L51.098 19.7363V15.5256L48.2584 14.2104Z" fill="#DDEDF8"/>
<path d="M30.8719 7.7194V8.86L32.8229 9.21096L33.7106 8.20216L33.2665 7.19336H31.6697L30.8719 7.7194Z" fill="#DDEDF8"/>
</svg>
