<svg width="192" height="50" viewBox="0 0 192 50" fill="none" xmlns="http://www.w3.org/2000/svg">
<path d="M53.0206 17.2782L45.6862 12.5L42.8905 4.77821H33.834L26.4996 0L19.1652 4.77821H10.1301L7.33439 12.5L0 17.2782L2.79566 25L0 32.7218L7.33439 37.5L10.1301 45.2218H19.1866L26.5209 50L33.8553 45.2218H42.9118L45.7075 37.5L53.0419 32.7218L50.2462 25L53.0419 17.2782H53.0206ZM48.2595 31.3409L42.242 35.2655L39.9528 41.6064H32.5171L26.4996 45.531L20.4822 41.6064H13.0465L10.7573 35.2655L4.73982 31.3409L7.02898 25.0001L4.73982 18.6593L10.7573 14.7347L13.0465 8.39383H20.4822L26.4996 4.46924L32.5171 8.39383H39.9528L42.242 14.7347L48.2595 18.6593L45.9703 25.0001L48.2595 31.3409ZM23.3997 19.1865C23.2175 13.2816 13.5939 13.2998 13.4315 19.1865C13.6138 25.0731 23.2373 25.0731 23.3997 19.1865ZM17.4835 19.1865C17.4835 18.0963 19.3477 18.0963 19.3477 19.1865C19.3477 20.2766 17.4835 20.2766 17.4835 19.1865ZM34.6236 25.6182C28.0391 25.7816 28.0594 34.4118 34.6236 34.5575C41.1877 34.394 41.1877 25.7638 34.6236 25.6182ZM34.6236 30.9237C33.408 30.9237 33.408 29.2519 34.6236 29.2519C35.8392 29.2519 35.8392 30.9237 34.6236 30.9237ZM36.8318 17.8234L17.9089 34.7931L15.0521 32.2312L33.975 15.2615L36.8318 17.8234Z" fill="#DDEDF8"/>
<path d="M82.664 16.4V16.368C82.664 15.5787 82.52 14.848 82.232 14.176C81.944 13.4933 81.5333 12.9013 81 12.4C80.4773 11.8987 79.848 11.5093 79.112 11.232C78.3867 10.944 77.5867 10.8 76.712 10.8H72.344V22H76.712C77.5867 22 78.3867 21.856 79.112 21.568C79.848 21.28 80.4773 20.8853 81 20.384C81.5333 19.8827 81.944 19.2907 82.232 18.608C82.52 17.9253 82.664 17.1893 82.664 16.4ZM80.088 16.432C80.088 16.9333 80.0027 17.3867 79.832 17.792C79.672 18.1973 79.4427 18.5493 79.144 18.848C78.856 19.1467 78.504 19.376 78.088 19.536C77.672 19.696 77.2133 19.776 76.712 19.776H74.808V13.024H76.712C77.2133 13.024 77.672 13.1093 78.088 13.28C78.504 13.44 78.856 13.6693 79.144 13.968C79.4427 14.2667 79.672 14.624 79.832 15.04C80.0027 15.456 80.088 15.9093 80.088 16.4V16.432ZM92.6036 17.952V17.92C92.6036 17.312 92.5183 16.7307 92.3476 16.176C92.1876 15.6107 91.9316 15.1147 91.5796 14.688C91.2383 14.2507 90.8063 13.904 90.2836 13.648C89.761 13.392 89.1423 13.264 88.4276 13.264C87.7983 13.264 87.2223 13.3813 86.6996 13.616C86.1876 13.8507 85.745 14.1707 85.3716 14.576C84.9983 14.9813 84.705 15.456 84.4916 16C84.289 16.544 84.1876 17.12 84.1876 17.728V17.76C84.1876 18.4213 84.2996 19.024 84.5236 19.568C84.7476 20.1013 85.057 20.5653 85.4516 20.96C85.857 21.3547 86.3316 21.6587 86.8756 21.872C87.4303 22.0853 88.0276 22.192 88.6676 22.192C89.4463 22.192 90.1236 22.0533 90.6996 21.776C91.2756 21.488 91.7663 21.0933 92.1716 20.592L90.7796 19.36C90.4383 19.6693 90.1076 19.8933 89.7876 20.032C89.4676 20.1707 89.105 20.24 88.6996 20.24C88.1556 20.24 87.697 20.1013 87.3236 19.824C86.961 19.536 86.721 19.1147 86.6036 18.56H92.5716C92.5823 18.4427 92.5876 18.3413 92.5876 18.256C92.5983 18.1707 92.6036 18.0693 92.6036 17.952ZM90.2356 17.04H86.5716C86.6676 16.4853 86.8703 16.0427 87.1796 15.712C87.4996 15.3813 87.9156 15.216 88.4276 15.216C88.9396 15.216 89.3503 15.3867 89.6596 15.728C89.969 16.0587 90.161 16.496 90.2356 17.04ZM100.704 19.392V19.36C100.704 18.9653 100.624 18.6293 100.464 18.352C100.304 18.0747 100.101 17.84 99.8561 17.648C99.6108 17.456 99.3335 17.296 99.0241 17.168C98.7148 17.0293 98.4108 16.912 98.1121 16.816C97.8775 16.7413 97.6535 16.6667 97.4401 16.592C97.2375 16.5173 97.0561 16.4427 96.8961 16.368C96.7361 16.2827 96.6081 16.1973 96.5121 16.112C96.4161 16.016 96.3681 15.9093 96.3681 15.792V15.76C96.3681 15.5893 96.4428 15.4507 96.5921 15.344C96.7415 15.2267 96.9655 15.168 97.2641 15.168C97.5735 15.168 97.9308 15.2427 98.3361 15.392C98.7415 15.5307 99.1575 15.7227 99.5841 15.968L100.512 14.288C100.043 13.9787 99.5255 13.7387 98.9601 13.568C98.4055 13.3867 97.8561 13.296 97.3121 13.296C96.8748 13.296 96.4641 13.3547 96.0801 13.472C95.7068 13.5893 95.3761 13.7653 95.0881 14C94.8108 14.2347 94.5868 14.5227 94.4161 14.864C94.2561 15.1947 94.1761 15.5787 94.1761 16.016V16.048C94.1761 16.464 94.2508 16.816 94.4001 17.104C94.5601 17.392 94.7628 17.6373 95.0081 17.84C95.2535 18.032 95.5255 18.192 95.8241 18.32C96.1335 18.4373 96.4375 18.5387 96.7361 18.624C96.9708 18.6987 97.1948 18.768 97.4081 18.832C97.6215 18.896 97.8081 18.9653 97.9681 19.04C98.1388 19.104 98.2721 19.184 98.3681 19.28C98.4641 19.376 98.5121 19.488 98.5121 19.616V19.648C98.5121 19.84 98.4268 19.9947 98.2561 20.112C98.0961 20.2293 97.8401 20.288 97.4881 20.288C97.0828 20.288 96.6455 20.2027 96.1761 20.032C95.7175 19.8613 95.2535 19.6053 94.7841 19.264L93.7441 20.864C94.3201 21.312 94.9228 21.6427 95.5521 21.856C96.1921 22.0587 96.8161 22.16 97.4241 22.16C97.8828 22.16 98.3095 22.1067 98.7041 22C99.1095 21.8827 99.4615 21.712 99.7601 21.488C100.059 21.264 100.288 20.9813 100.448 20.64C100.619 20.288 100.704 19.872 100.704 19.392ZM109.999 20.624L108.575 19.184C108.277 19.4613 107.973 19.6853 107.663 19.856C107.365 20.016 107.013 20.096 106.607 20.096C106.277 20.096 105.978 20.0373 105.711 19.92C105.445 19.792 105.215 19.6213 105.023 19.408C104.831 19.1947 104.682 18.944 104.575 18.656C104.479 18.368 104.431 18.0587 104.431 17.728V17.696C104.431 17.376 104.479 17.0773 104.575 16.8C104.682 16.512 104.826 16.2613 105.007 16.048C105.199 15.8347 105.418 15.6693 105.663 15.552C105.919 15.424 106.202 15.36 106.511 15.36C106.949 15.36 107.311 15.4453 107.599 15.616C107.898 15.7867 108.186 16.016 108.463 16.304L109.951 14.704C109.546 14.256 109.077 13.904 108.543 13.648C108.01 13.392 107.338 13.264 106.527 13.264C105.866 13.264 105.258 13.3813 104.703 13.616C104.159 13.8507 103.69 14.1707 103.295 14.576C102.901 14.9813 102.591 15.456 102.367 16C102.143 16.544 102.031 17.12 102.031 17.728V17.76C102.031 18.368 102.143 18.944 102.367 19.488C102.591 20.0213 102.901 20.4907 103.295 20.896C103.69 21.2907 104.159 21.6053 104.703 21.84C105.258 22.0747 105.855 22.192 106.495 22.192C107.349 22.192 108.042 22.048 108.575 21.76C109.109 21.4613 109.583 21.0827 109.999 20.624ZM120.452 17.728V17.696C120.452 17.0773 120.335 16.5013 120.1 15.968C119.865 15.424 119.54 14.9547 119.124 14.56C118.719 14.1547 118.233 13.84 117.668 13.616C117.103 13.3813 116.489 13.264 115.828 13.264C115.156 13.264 114.537 13.3813 113.972 13.616C113.407 13.8507 112.916 14.1707 112.5 14.576C112.084 14.9813 111.759 15.456 111.524 16C111.289 16.5333 111.172 17.1093 111.172 17.728V17.76C111.172 18.3787 111.289 18.96 111.524 19.504C111.759 20.0373 112.079 20.5067 112.484 20.912C112.9 21.3067 113.391 21.6213 113.956 21.856C114.521 22.08 115.135 22.192 115.796 22.192C116.468 22.192 117.087 22.0747 117.652 21.84C118.217 21.6053 118.708 21.2853 119.124 20.88C119.54 20.4747 119.865 20.0053 120.1 19.472C120.335 18.928 120.452 18.3467 120.452 17.728ZM118.052 17.76C118.052 18.08 117.999 18.384 117.892 18.672C117.796 18.9493 117.652 19.1947 117.46 19.408C117.268 19.6213 117.033 19.792 116.756 19.92C116.489 20.0373 116.18 20.096 115.828 20.096C115.487 20.096 115.177 20.032 114.9 19.904C114.633 19.776 114.399 19.6053 114.196 19.392C113.993 19.168 113.839 18.9173 113.732 18.64C113.625 18.352 113.572 18.048 113.572 17.728V17.696C113.572 17.376 113.62 17.0773 113.716 16.8C113.823 16.512 113.972 16.2613 114.164 16.048C114.356 15.8347 114.585 15.6693 114.852 15.552C115.129 15.424 115.444 15.36 115.796 15.36C116.127 15.36 116.431 15.424 116.708 15.552C116.985 15.68 117.225 15.856 117.428 16.08C117.631 16.2933 117.785 16.544 117.892 16.832C117.999 17.1093 118.052 17.408 118.052 17.728V17.76ZM130.069 22V16.448C130.069 15.456 129.813 14.6773 129.301 14.112C128.8 13.5467 128.085 13.264 127.157 13.264C126.848 13.264 126.57 13.3013 126.325 13.376C126.08 13.4507 125.856 13.552 125.653 13.68C125.45 13.808 125.264 13.9573 125.093 14.128C124.933 14.288 124.784 14.4587 124.645 14.64V13.424H122.213V22H124.645V17.216C124.645 16.64 124.778 16.208 125.045 15.92C125.322 15.6213 125.696 15.472 126.165 15.472C126.634 15.472 126.997 15.6213 127.253 15.92C127.509 16.208 127.637 16.64 127.637 17.216V22H130.069ZM136.998 21.648V19.696C136.624 19.8987 136.224 20 135.798 20C135.275 20 135.014 19.7227 135.014 19.168V15.504H137.03V13.424H135.014V11.232H132.582V13.424H131.558V15.504H132.582V19.568C132.582 20.0693 132.64 20.4853 132.758 20.816C132.886 21.136 133.056 21.3973 133.27 21.6C133.494 21.8027 133.755 21.9413 134.054 22.016C134.363 22.1013 134.704 22.144 135.078 22.144C135.483 22.144 135.84 22.096 136.15 22C136.459 21.9147 136.742 21.7973 136.998 21.648ZM147.686 17.728V17.696C147.686 17.0773 147.569 16.5013 147.334 15.968C147.1 15.424 146.774 14.9547 146.358 14.56C145.953 14.1547 145.468 13.84 144.902 13.616C144.337 13.3813 143.724 13.264 143.062 13.264C142.39 13.264 141.772 13.3813 141.206 13.616C140.641 13.8507 140.15 14.1707 139.734 14.576C139.318 14.9813 138.993 15.456 138.758 16C138.524 16.5333 138.406 17.1093 138.406 17.728V17.76C138.406 18.3787 138.524 18.96 138.758 19.504C138.993 20.0373 139.313 20.5067 139.718 20.912C140.134 21.3067 140.625 21.6213 141.19 21.856C141.756 22.08 142.369 22.192 143.03 22.192C143.702 22.192 144.321 22.0747 144.886 21.84C145.452 21.6053 145.942 21.2853 146.358 20.88C146.774 20.4747 147.1 20.0053 147.334 19.472C147.569 18.928 147.686 18.3467 147.686 17.728ZM145.286 17.76C145.286 18.08 145.233 18.384 145.126 18.672C145.03 18.9493 144.886 19.1947 144.694 19.408C144.502 19.6213 144.268 19.792 143.99 19.92C143.724 20.0373 143.414 20.096 143.062 20.096C142.721 20.096 142.412 20.032 142.134 19.904C141.868 19.776 141.633 19.6053 141.43 19.392C141.228 19.168 141.073 18.9173 140.966 18.64C140.86 18.352 140.806 18.048 140.806 17.728V17.696C140.806 17.376 140.854 17.0773 140.95 16.8C141.057 16.512 141.206 16.2613 141.398 16.048C141.59 15.8347 141.82 15.6693 142.086 15.552C142.364 15.424 142.678 15.36 143.03 15.36C143.361 15.36 143.665 15.424 143.942 15.552C144.22 15.68 144.46 15.856 144.662 16.08C144.865 16.2933 145.02 16.544 145.126 16.832C145.233 17.1093 145.286 17.408 145.286 17.728V17.76ZM162.244 17.952V17.92C162.244 17.312 162.159 16.7307 161.988 16.176C161.828 15.6107 161.572 15.1147 161.22 14.688C160.879 14.2507 160.447 13.904 159.924 13.648C159.402 13.392 158.783 13.264 158.068 13.264C157.439 13.264 156.863 13.3813 156.34 13.616C155.828 13.8507 155.386 14.1707 155.012 14.576C154.639 14.9813 154.346 15.456 154.132 16C153.93 16.544 153.828 17.12 153.828 17.728V17.76C153.828 18.4213 153.94 19.024 154.164 19.568C154.388 20.1013 154.698 20.5653 155.092 20.96C155.498 21.3547 155.972 21.6587 156.516 21.872C157.071 22.0853 157.668 22.192 158.308 22.192C159.087 22.192 159.764 22.0533 160.34 21.776C160.916 21.488 161.407 21.0933 161.812 20.592L160.42 19.36C160.079 19.6693 159.748 19.8933 159.428 20.032C159.108 20.1707 158.746 20.24 158.34 20.24C157.796 20.24 157.338 20.1013 156.964 19.824C156.602 19.536 156.362 19.1147 156.244 18.56H162.212C162.223 18.4427 162.228 18.3413 162.228 18.256C162.239 18.1707 162.244 18.0693 162.244 17.952ZM159.876 17.04H156.212C156.308 16.4853 156.511 16.0427 156.82 15.712C157.14 15.3813 157.556 15.216 158.068 15.216C158.58 15.216 158.991 15.3867 159.3 15.728C159.61 16.0587 159.802 16.496 159.876 17.04ZM177.145 22V16.416C177.145 15.3813 176.889 14.5973 176.377 14.064C175.865 13.5307 175.155 13.264 174.249 13.264C173.662 13.264 173.139 13.3813 172.681 13.616C172.222 13.84 171.806 14.176 171.433 14.624C171.209 14.1867 170.889 13.8507 170.473 13.616C170.067 13.3813 169.582 13.264 169.017 13.264C168.707 13.264 168.425 13.3013 168.169 13.376C167.923 13.4507 167.699 13.552 167.497 13.68C167.294 13.808 167.107 13.9573 166.937 14.128C166.777 14.288 166.627 14.4587 166.489 14.64V13.424H164.057V22H166.489V17.216C166.489 16.64 166.617 16.208 166.873 15.92C167.139 15.6213 167.502 15.472 167.961 15.472C168.419 15.472 168.771 15.6213 169.017 15.92C169.262 16.208 169.385 16.64 169.385 17.216V22H171.817V17.216C171.817 16.64 171.945 16.208 172.201 15.92C172.467 15.6213 172.83 15.472 173.289 15.472C173.747 15.472 174.099 15.6213 174.345 15.92C174.59 16.208 174.713 16.64 174.713 17.216V22H177.145Z" fill="#0D1746"/>
<path d="M83.544 37V25.8H80.888L77.944 30.536L75 25.8H72.344V37H74.76V29.736L77.88 34.472H77.944L81.096 29.688V37H83.544ZM93.9786 32.952V32.92C93.9786 32.312 93.8933 31.7307 93.7226 31.176C93.5626 30.6107 93.3066 30.1147 92.9546 29.688C92.6133 29.2507 92.1813 28.904 91.6586 28.648C91.136 28.392 90.5173 28.264 89.8026 28.264C89.1733 28.264 88.5973 28.3813 88.0746 28.616C87.5626 28.8507 87.12 29.1707 86.7466 29.576C86.3733 29.9813 86.08 30.456 85.8666 31C85.664 31.544 85.5626 32.12 85.5626 32.728V32.76C85.5626 33.4213 85.6746 34.024 85.8986 34.568C86.1226 35.1013 86.432 35.5653 86.8266 35.96C87.232 36.3547 87.7066 36.6587 88.2506 36.872C88.8053 37.0853 89.4026 37.192 90.0426 37.192C90.8213 37.192 91.4986 37.0533 92.0746 36.776C92.6506 36.488 93.1413 36.0933 93.5466 35.592L92.1546 34.36C91.8133 34.6693 91.4826 34.8933 91.1626 35.032C90.8426 35.1707 90.48 35.24 90.0746 35.24C89.5306 35.24 89.072 35.1013 88.6986 34.824C88.336 34.536 88.096 34.1147 87.9786 33.56H93.9466C93.9573 33.4427 93.9626 33.3413 93.9626 33.256C93.9733 33.1707 93.9786 33.0693 93.9786 32.952ZM91.6106 32.04H87.9466C88.0426 31.4853 88.2453 31.0427 88.5546 30.712C88.8746 30.3813 89.2906 30.216 89.8026 30.216C90.3146 30.216 90.7253 30.3867 91.0346 30.728C91.344 31.0587 91.536 31.496 91.6106 32.04ZM104.415 37V25.32H101.983V29.544C101.695 29.2027 101.338 28.904 100.911 28.648C100.495 28.392 99.9618 28.264 99.3111 28.264C98.7991 28.264 98.3085 28.36 97.8391 28.552C97.3698 28.744 96.9538 29.032 96.5911 29.416C96.2391 29.7893 95.9511 30.2533 95.7271 30.808C95.5138 31.352 95.4071 31.9813 95.4071 32.696V32.728C95.4071 33.4427 95.5138 34.0773 95.7271 34.632C95.9511 35.176 96.2445 35.64 96.6071 36.024C96.9698 36.3973 97.3858 36.68 97.8551 36.872C98.3245 37.064 98.8098 37.16 99.3111 37.16C99.9511 37.16 100.479 37.032 100.895 36.776C101.322 36.5093 101.684 36.1733 101.983 35.768V37H104.415ZM102.015 32.728C102.015 33.08 101.956 33.4053 101.839 33.704C101.732 33.992 101.583 34.2427 101.391 34.456C101.21 34.6587 100.991 34.8187 100.735 34.936C100.49 35.0427 100.223 35.096 99.9351 35.096C99.6471 35.096 99.3751 35.0427 99.1191 34.936C98.8738 34.8187 98.6551 34.6587 98.4631 34.456C98.2711 34.2427 98.1165 33.992 97.9991 33.704C97.8925 33.4053 97.8391 33.08 97.8391 32.728V32.696C97.8391 32.3333 97.8925 32.008 97.9991 31.72C98.1165 31.432 98.2711 31.1867 98.4631 30.984C98.6551 30.7707 98.8738 30.6107 99.1191 30.504C99.3751 30.3867 99.6471 30.328 99.9351 30.328C100.223 30.328 100.49 30.3867 100.735 30.504C100.991 30.6107 101.21 30.7707 101.391 30.984C101.583 31.1867 101.732 31.4373 101.839 31.736C101.956 32.024 102.015 32.344 102.015 32.696V32.728ZM109.196 27.48V25.32H106.636V27.48H109.196ZM109.132 37V28.424H106.7V37H109.132ZM118.968 35.624L117.544 34.184C117.245 34.4613 116.941 34.6853 116.632 34.856C116.333 35.016 115.981 35.096 115.576 35.096C115.245 35.096 114.947 35.0373 114.68 34.92C114.413 34.792 114.184 34.6213 113.992 34.408C113.8 34.1947 113.651 33.944 113.544 33.656C113.448 33.368 113.4 33.0587 113.4 32.728V32.696C113.4 32.376 113.448 32.0773 113.544 31.8C113.651 31.512 113.795 31.2613 113.976 31.048C114.168 30.8347 114.387 30.6693 114.632 30.552C114.888 30.424 115.171 30.36 115.48 30.36C115.917 30.36 116.28 30.4453 116.568 30.616C116.867 30.7867 117.155 31.016 117.432 31.304L118.92 29.704C118.515 29.256 118.045 28.904 117.512 28.648C116.979 28.392 116.307 28.264 115.496 28.264C114.835 28.264 114.227 28.3813 113.672 28.616C113.128 28.8507 112.659 29.1707 112.264 29.576C111.869 29.9813 111.56 30.456 111.336 31C111.112 31.544 111 32.12 111 32.728V32.76C111 33.368 111.112 33.944 111.336 34.488C111.56 35.0213 111.869 35.4907 112.264 35.896C112.659 36.2907 113.128 36.6053 113.672 36.84C114.227 37.0747 114.824 37.192 115.464 37.192C116.317 37.192 117.011 37.048 117.544 36.76C118.077 36.4613 118.552 36.0827 118.968 35.624ZM127.933 37V32.024C127.933 30.8613 127.629 29.9547 127.021 29.304C126.413 28.6533 125.442 28.328 124.109 28.328C123.383 28.328 122.765 28.392 122.253 28.52C121.741 28.648 121.25 28.8133 120.781 29.016L121.389 30.872C121.783 30.7227 122.157 30.6107 122.509 30.536C122.871 30.4507 123.287 30.408 123.757 30.408C124.365 30.408 124.823 30.5413 125.133 30.808C125.442 31.0747 125.597 31.464 125.597 31.976V32.12C125.287 32.0133 124.967 31.928 124.637 31.864C124.317 31.8 123.938 31.768 123.501 31.768C122.989 31.768 122.519 31.8267 122.093 31.944C121.677 32.0507 121.314 32.216 121.005 32.44C120.706 32.664 120.471 32.9467 120.301 33.288C120.13 33.6293 120.045 34.0347 120.045 34.504V34.536C120.045 34.9627 120.119 35.3413 120.269 35.672C120.429 35.992 120.642 36.264 120.909 36.488C121.175 36.712 121.485 36.8827 121.837 37C122.199 37.1067 122.583 37.16 122.989 37.16C123.586 37.16 124.093 37.064 124.509 36.872C124.925 36.6693 125.282 36.4027 125.581 36.072V37H127.933ZM125.629 33.976C125.629 34.424 125.453 34.7867 125.101 35.064C124.759 35.3413 124.301 35.48 123.725 35.48C123.33 35.48 123.01 35.3893 122.765 35.208C122.519 35.0267 122.397 34.7707 122.397 34.44V34.408C122.397 34.024 122.546 33.7307 122.845 33.528C123.143 33.3253 123.554 33.224 124.077 33.224C124.375 33.224 124.653 33.256 124.909 33.32C125.175 33.3733 125.415 33.448 125.629 33.544V33.976ZM143.114 37V31.416C143.114 30.3813 142.858 29.5973 142.346 29.064C141.834 28.5307 141.124 28.264 140.218 28.264C139.631 28.264 139.108 28.3813 138.65 28.616C138.191 28.84 137.775 29.176 137.402 29.624C137.178 29.1867 136.858 28.8507 136.442 28.616C136.036 28.3813 135.551 28.264 134.986 28.264C134.676 28.264 134.394 28.3013 134.138 28.376C133.892 28.4507 133.668 28.552 133.466 28.68C133.263 28.808 133.076 28.9573 132.906 29.128C132.746 29.288 132.596 29.4587 132.458 29.64V28.424H130.026V37H132.458V32.216C132.458 31.64 132.586 31.208 132.842 30.92C133.108 30.6213 133.471 30.472 133.93 30.472C134.388 30.472 134.74 30.6213 134.986 30.92C135.231 31.208 135.354 31.64 135.354 32.216V37H137.786V32.216C137.786 31.64 137.914 31.208 138.17 30.92C138.436 30.6213 138.799 30.472 139.258 30.472C139.716 30.472 140.068 30.6213 140.314 30.92C140.559 31.208 140.682 31.64 140.682 32.216V37H143.114ZM153.229 32.952V32.92C153.229 32.312 153.143 31.7307 152.973 31.176C152.813 30.6107 152.557 30.1147 152.205 29.688C151.863 29.2507 151.431 28.904 150.909 28.648C150.386 28.392 149.767 28.264 149.053 28.264C148.423 28.264 147.847 28.3813 147.325 28.616C146.813 28.8507 146.37 29.1707 145.997 29.576C145.623 29.9813 145.33 30.456 145.117 31C144.914 31.544 144.813 32.12 144.813 32.728V32.76C144.813 33.4213 144.925 34.024 145.149 34.568C145.373 35.1013 145.682 35.5653 146.077 35.96C146.482 36.3547 146.957 36.6587 147.501 36.872C148.055 37.0853 148.653 37.192 149.293 37.192C150.071 37.192 150.749 37.0533 151.325 36.776C151.901 36.488 152.391 36.0933 152.797 35.592L151.405 34.36C151.063 34.6693 150.733 34.8933 150.413 35.032C150.093 35.1707 149.73 35.24 149.325 35.24C148.781 35.24 148.322 35.1013 147.949 34.824C147.586 34.536 147.346 34.1147 147.229 33.56H153.197C153.207 33.4427 153.213 33.3413 153.213 33.256C153.223 33.1707 153.229 33.0693 153.229 32.952ZM150.861 32.04H147.197C147.293 31.4853 147.495 31.0427 147.805 30.712C148.125 30.3813 148.541 30.216 149.053 30.216C149.565 30.216 149.975 30.3867 150.285 30.728C150.594 31.0587 150.786 31.496 150.861 32.04ZM162.897 37V31.448C162.897 30.456 162.641 29.6773 162.129 29.112C161.628 28.5467 160.913 28.264 159.985 28.264C159.676 28.264 159.398 28.3013 159.153 28.376C158.908 28.4507 158.684 28.552 158.481 28.68C158.278 28.808 158.092 28.9573 157.921 29.128C157.761 29.288 157.612 29.4587 157.473 29.64V28.424H155.041V37H157.473V32.216C157.473 31.64 157.606 31.208 157.873 30.92C158.15 30.6213 158.524 30.472 158.993 30.472C159.462 30.472 159.825 30.6213 160.081 30.92C160.337 31.208 160.465 31.64 160.465 32.216V37H162.897ZM169.826 36.648V34.696C169.453 34.8987 169.053 35 168.626 35C168.103 35 167.842 34.7227 167.842 34.168V30.504H169.858V28.424H167.842V26.232H165.41V28.424H164.386V30.504H165.41V34.568C165.41 35.0693 165.469 35.4853 165.586 35.816C165.714 36.136 165.885 36.3973 166.098 36.6C166.322 36.8027 166.583 36.9413 166.882 37.016C167.191 37.1013 167.533 37.144 167.906 37.144C168.311 37.144 168.669 37.096 168.978 37C169.287 36.9147 169.57 36.7973 169.826 36.648ZM180.515 32.728V32.696C180.515 32.0773 180.397 31.5013 180.163 30.968C179.928 30.424 179.603 29.9547 179.187 29.56C178.781 29.1547 178.296 28.84 177.731 28.616C177.165 28.3813 176.552 28.264 175.891 28.264C175.219 28.264 174.6 28.3813 174.035 28.616C173.469 28.8507 172.979 29.1707 172.562 29.576C172.147 29.9813 171.821 30.456 171.587 31C171.352 31.5333 171.235 32.1093 171.235 32.728V32.76C171.235 33.3787 171.352 33.96 171.587 34.504C171.821 35.0373 172.141 35.5067 172.547 35.912C172.963 36.3067 173.453 36.6213 174.019 36.856C174.584 37.08 175.197 37.192 175.859 37.192C176.531 37.192 177.149 37.0747 177.715 36.84C178.28 36.6053 178.771 36.2853 179.187 35.88C179.603 35.4747 179.928 35.0053 180.163 34.472C180.397 33.928 180.515 33.3467 180.515 32.728ZM178.115 32.76C178.115 33.08 178.061 33.384 177.955 33.672C177.859 33.9493 177.715 34.1947 177.523 34.408C177.331 34.6213 177.096 34.792 176.819 34.92C176.552 35.0373 176.243 35.096 175.891 35.096C175.549 35.096 175.24 35.032 174.963 34.904C174.696 34.776 174.461 34.6053 174.259 34.392C174.056 34.168 173.901 33.9173 173.795 33.64C173.688 33.352 173.635 33.048 173.635 32.728V32.696C173.635 32.376 173.683 32.0773 173.779 31.8C173.885 31.512 174.035 31.2613 174.227 31.048C174.419 30.8347 174.648 30.6693 174.915 30.552C175.192 30.424 175.507 30.36 175.859 30.36C176.189 30.36 176.493 30.424 176.771 30.552C177.048 30.68 177.288 30.856 177.491 31.08C177.693 31.2933 177.848 31.544 177.955 31.832C178.061 32.1093 178.115 32.408 178.115 32.728V32.76ZM188.564 34.392V34.36C188.564 33.9653 188.484 33.6293 188.324 33.352C188.164 33.0747 187.961 32.84 187.716 32.648C187.47 32.456 187.193 32.296 186.884 32.168C186.574 32.0293 186.27 31.912 185.972 31.816C185.737 31.7413 185.513 31.6667 185.299 31.592C185.097 31.5173 184.916 31.4427 184.756 31.368C184.596 31.2827 184.468 31.1973 184.372 31.112C184.276 31.016 184.228 30.9093 184.228 30.792V30.76C184.228 30.5893 184.302 30.4507 184.452 30.344C184.601 30.2267 184.825 30.168 185.124 30.168C185.433 30.168 185.79 30.2427 186.196 30.392C186.601 30.5307 187.017 30.7227 187.444 30.968L188.372 29.288C187.902 28.9787 187.385 28.7387 186.82 28.568C186.265 28.3867 185.716 28.296 185.172 28.296C184.734 28.296 184.324 28.3547 183.94 28.472C183.566 28.5893 183.236 28.7653 182.948 29C182.67 29.2347 182.446 29.5227 182.276 29.864C182.116 30.1947 182.036 30.5787 182.036 31.016V31.048C182.036 31.464 182.11 31.816 182.26 32.104C182.42 32.392 182.622 32.6373 182.868 32.84C183.113 33.032 183.385 33.192 183.684 33.32C183.993 33.4373 184.297 33.5387 184.596 33.624C184.83 33.6987 185.054 33.768 185.268 33.832C185.481 33.896 185.668 33.9653 185.828 34.04C185.998 34.104 186.132 34.184 186.228 34.28C186.324 34.376 186.372 34.488 186.372 34.616V34.648C186.372 34.84 186.286 34.9947 186.116 35.112C185.956 35.2293 185.7 35.288 185.348 35.288C184.942 35.288 184.505 35.2027 184.036 35.032C183.577 34.8613 183.113 34.6053 182.644 34.264L181.604 35.864C182.18 36.312 182.782 36.6427 183.412 36.856C184.052 37.0587 184.676 37.16 185.284 37.16C185.742 37.16 186.169 37.1067 186.564 37C186.969 36.8827 187.321 36.712 187.62 36.488C187.918 36.264 188.148 35.9813 188.308 35.64C188.478 35.288 188.564 34.872 188.564 34.392Z" fill="#0079C7"/>
</svg>
