<svg width="181" height="50" viewBox="0 0 181 50" fill="none" xmlns="http://www.w3.org/2000/svg">
<path d="M89.872 22V19.808H83.792V17.456H89.072V15.264H83.792V12.992H89.792V10.8H81.344V22H89.872ZM104.895 22V16.416C104.895 15.3813 104.639 14.5973 104.127 14.064C103.615 13.5307 102.905 13.264 101.999 13.264C101.412 13.264 100.889 13.3813 100.431 13.616C99.9721 13.84 99.5561 14.176 99.1828 14.624C98.9588 14.1867 98.6388 13.8507 98.2228 13.616C97.8174 13.3813 97.3321 13.264 96.7668 13.264C96.4574 13.264 96.1748 13.3013 95.9188 13.376C95.6734 13.4507 95.4494 13.552 95.2468 13.68C95.0441 13.808 94.8574 13.9573 94.6868 14.128C94.5268 14.288 94.3774 14.4587 94.2388 14.64V13.424H91.8068V22H94.2388V17.216C94.2388 16.64 94.3668 16.208 94.6228 15.92C94.8894 15.6213 95.2521 15.472 95.7108 15.472C96.1694 15.472 96.5214 15.6213 96.7668 15.92C97.0121 16.208 97.1348 16.64 97.1348 17.216V22H99.5668V17.216C99.5668 16.64 99.6948 16.208 99.9508 15.92C100.217 15.6213 100.58 15.472 101.039 15.472C101.497 15.472 101.849 15.6213 102.095 15.92C102.34 16.208 102.463 16.64 102.463 17.216V22H104.895ZM115.01 17.952V17.92C115.01 17.312 114.925 16.7307 114.754 16.176C114.594 15.6107 114.338 15.1147 113.986 14.688C113.645 14.2507 113.213 13.904 112.69 13.648C112.167 13.392 111.549 13.264 110.834 13.264C110.205 13.264 109.629 13.3813 109.106 13.616C108.594 13.8507 108.151 14.1707 107.778 14.576C107.405 14.9813 107.111 15.456 106.898 16C106.695 16.544 106.594 17.12 106.594 17.728V17.76C106.594 18.4213 106.706 19.024 106.93 19.568C107.154 20.1013 107.463 20.5653 107.858 20.96C108.263 21.3547 108.738 21.6587 109.282 21.872C109.837 22.0853 110.434 22.192 111.074 22.192C111.853 22.192 112.53 22.0533 113.106 21.776C113.682 21.488 114.173 21.0933 114.578 20.592L113.186 19.36C112.845 19.6693 112.514 19.8933 112.194 20.032C111.874 20.1707 111.511 20.24 111.106 20.24C110.562 20.24 110.103 20.1013 109.73 19.824C109.367 19.536 109.127 19.1147 109.01 18.56H114.978C114.989 18.4427 114.994 18.3413 114.994 18.256C115.005 18.1707 115.01 18.0693 115.01 17.952ZM112.642 17.04H108.978C109.074 16.4853 109.277 16.0427 109.586 15.712C109.906 15.3813 110.322 15.216 110.834 15.216C111.346 15.216 111.757 15.3867 112.066 15.728C112.375 16.0587 112.567 16.496 112.642 17.04ZM121.99 15.808V13.264C121.265 13.232 120.689 13.392 120.262 13.744C119.836 14.096 119.5 14.5653 119.254 15.152V13.424H116.822V22H119.254V18.832C119.254 17.7973 119.484 17.0347 119.942 16.544C120.412 16.0533 121.052 15.808 121.862 15.808H121.99ZM132.134 20.064V13.424H129.702V14.544C129.371 14.1813 128.993 13.8773 128.566 13.632C128.139 13.3867 127.595 13.264 126.934 13.264C126.443 13.264 125.969 13.3547 125.51 13.536C125.051 13.7067 124.646 13.9627 124.294 14.304C123.942 14.6453 123.659 15.0667 123.446 15.568C123.233 16.0587 123.126 16.624 123.126 17.264V17.296C123.126 17.936 123.227 18.5067 123.43 19.008C123.643 19.4987 123.926 19.9147 124.278 20.256C124.63 20.5973 125.035 20.8587 125.494 21.04C125.953 21.2107 126.433 21.296 126.934 21.296C127.585 21.296 128.123 21.1733 128.55 20.928C128.977 20.6827 129.371 20.3413 129.734 19.904V20.32C129.734 21.088 129.531 21.6693 129.126 22.064C128.731 22.4587 128.118 22.656 127.286 22.656C126.71 22.656 126.193 22.5867 125.734 22.448C125.286 22.3093 124.838 22.1173 124.39 21.872L123.558 23.696C124.102 23.984 124.694 24.2027 125.334 24.352C125.974 24.512 126.646 24.592 127.35 24.592C128.15 24.592 128.849 24.5067 129.446 24.336C130.043 24.1653 130.539 23.8987 130.934 23.536C131.339 23.1733 131.638 22.704 131.83 22.128C132.033 21.5627 132.134 20.8747 132.134 20.064ZM129.734 17.296C129.734 17.584 129.681 17.8507 129.574 18.096C129.467 18.3413 129.318 18.5547 129.126 18.736C128.945 18.9067 128.726 19.04 128.47 19.136C128.214 19.232 127.937 19.28 127.638 19.28C127.041 19.28 126.545 19.0987 126.15 18.736C125.755 18.3733 125.558 17.8933 125.558 17.296V17.264C125.558 16.976 125.611 16.7093 125.718 16.464C125.825 16.2187 125.969 16.0107 126.15 15.84C126.342 15.6587 126.561 15.52 126.806 15.424C127.062 15.328 127.339 15.28 127.638 15.28C127.937 15.28 128.214 15.328 128.47 15.424C128.726 15.52 128.945 15.6587 129.126 15.84C129.318 16.0107 129.467 16.2187 129.574 16.464C129.681 16.7093 129.734 16.976 129.734 17.264V17.296ZM142.307 17.952V17.92C142.307 17.312 142.221 16.7307 142.051 16.176C141.891 15.6107 141.635 15.1147 141.283 14.688C140.941 14.2507 140.509 13.904 139.987 13.648C139.464 13.392 138.845 13.264 138.131 13.264C137.501 13.264 136.925 13.3813 136.403 13.616C135.891 13.8507 135.448 14.1707 135.075 14.576C134.701 14.9813 134.408 15.456 134.195 16C133.992 16.544 133.891 17.12 133.891 17.728V17.76C133.891 18.4213 134.003 19.024 134.227 19.568C134.451 20.1013 134.76 20.5653 135.155 20.96C135.56 21.3547 136.035 21.6587 136.579 21.872C137.133 22.0853 137.731 22.192 138.371 22.192C139.149 22.192 139.827 22.0533 140.403 21.776C140.979 21.488 141.469 21.0933 141.875 20.592L140.483 19.36C140.141 19.6693 139.811 19.8933 139.491 20.032C139.171 20.1707 138.808 20.24 138.403 20.24C137.859 20.24 137.4 20.1013 137.027 19.824C136.664 19.536 136.424 19.1147 136.307 18.56H142.275C142.285 18.4427 142.291 18.3413 142.291 18.256C142.301 18.1707 142.307 18.0693 142.307 17.952ZM139.939 17.04H136.275C136.371 16.4853 136.573 16.0427 136.883 15.712C137.203 15.3813 137.619 15.216 138.131 15.216C138.643 15.216 139.053 15.3867 139.363 15.728C139.672 16.0587 139.864 16.496 139.939 17.04ZM138.099 11.424L139.363 12.48H141.235L139.267 9.968H136.963L134.995 12.48H136.835L138.099 11.424ZM151.975 22V16.448C151.975 15.456 151.719 14.6773 151.207 14.112C150.706 13.5467 149.991 13.264 149.063 13.264C148.754 13.264 148.477 13.3013 148.231 13.376C147.986 13.4507 147.762 13.552 147.559 13.68C147.357 13.808 147.17 13.9573 146.999 14.128C146.839 14.288 146.69 14.4587 146.551 14.64V13.424H144.119V22H146.551V17.216C146.551 16.64 146.685 16.208 146.951 15.92C147.229 15.6213 147.602 15.472 148.071 15.472C148.541 15.472 148.903 15.6213 149.159 15.92C149.415 16.208 149.543 16.64 149.543 17.216V22H151.975ZM161.64 20.624L160.216 19.184C159.917 19.4613 159.613 19.6853 159.304 19.856C159.005 20.016 158.653 20.096 158.248 20.096C157.917 20.096 157.619 20.0373 157.352 19.92C157.085 19.792 156.856 19.6213 156.664 19.408C156.472 19.1947 156.323 18.944 156.216 18.656C156.12 18.368 156.072 18.0587 156.072 17.728V17.696C156.072 17.376 156.12 17.0773 156.216 16.8C156.323 16.512 156.467 16.2613 156.648 16.048C156.84 15.8347 157.059 15.6693 157.304 15.552C157.56 15.424 157.843 15.36 158.152 15.36C158.589 15.36 158.952 15.4453 159.24 15.616C159.539 15.7867 159.827 16.016 160.104 16.304L161.592 14.704C161.187 14.256 160.717 13.904 160.184 13.648C159.651 13.392 158.979 13.264 158.168 13.264C157.507 13.264 156.899 13.3813 156.344 13.616C155.8 13.8507 155.331 14.1707 154.936 14.576C154.541 14.9813 154.232 15.456 154.008 16C153.784 16.544 153.672 17.12 153.672 17.728V17.76C153.672 18.368 153.784 18.944 154.008 19.488C154.232 20.0213 154.541 20.4907 154.936 20.896C155.331 21.2907 155.8 21.6053 156.344 21.84C156.899 22.0747 157.496 22.192 158.136 22.192C158.989 22.192 159.683 22.048 160.216 21.76C160.749 21.4613 161.224 21.0827 161.64 20.624ZM165.837 12.48V10.32H163.277V12.48H165.837ZM165.773 22V13.424H163.341V22H165.773ZM175.433 22V17.024C175.433 15.8613 175.129 14.9547 174.521 14.304C173.913 13.6533 172.942 13.328 171.609 13.328C170.883 13.328 170.265 13.392 169.753 13.52C169.241 13.648 168.75 13.8133 168.281 14.016L168.889 15.872C169.283 15.7227 169.657 15.6107 170.009 15.536C170.371 15.4507 170.787 15.408 171.257 15.408C171.865 15.408 172.323 15.5413 172.633 15.808C172.942 16.0747 173.097 16.464 173.097 16.976V17.12C172.787 17.0133 172.467 16.928 172.137 16.864C171.817 16.8 171.438 16.768 171.001 16.768C170.489 16.768 170.019 16.8267 169.593 16.944C169.177 17.0507 168.814 17.216 168.505 17.44C168.206 17.664 167.971 17.9467 167.801 18.288C167.63 18.6293 167.545 19.0347 167.545 19.504V19.536C167.545 19.9627 167.619 20.3413 167.769 20.672C167.929 20.992 168.142 21.264 168.409 21.488C168.675 21.712 168.985 21.8827 169.337 22C169.699 22.1067 170.083 22.16 170.489 22.16C171.086 22.16 171.593 22.064 172.009 21.872C172.425 21.6693 172.782 21.4027 173.081 21.072V22H175.433ZM173.129 18.976C173.129 19.424 172.953 19.7867 172.601 20.064C172.259 20.3413 171.801 20.48 171.225 20.48C170.83 20.48 170.51 20.3893 170.265 20.208C170.019 20.0267 169.897 19.7707 169.897 19.44V19.408C169.897 19.024 170.046 18.7307 170.345 18.528C170.643 18.3253 171.054 18.224 171.577 18.224C171.875 18.224 172.153 18.256 172.409 18.32C172.675 18.3733 172.915 18.448 173.129 18.544V18.976Z" fill="#0D1746"/>
<path d="M84.944 27.848C85.392 27.848 85.7547 27.9707 86.032 28.216C86.3093 28.4613 86.448 28.824 86.448 29.304C86.448 29.5387 86.4107 29.7573 86.336 29.96C86.272 30.152 86.16 30.3547 86 30.568C85.8507 30.7707 85.6533 30.9893 85.408 31.224C85.1627 31.448 84.864 31.704 84.512 31.992L80.784 35.048V37H89.072V34.872H84.192L86.016 33.464C86.5067 33.08 86.9387 32.728 87.312 32.408C87.6853 32.0773 87.9893 31.7467 88.224 31.416C88.4693 31.0853 88.6507 30.7387 88.768 30.376C88.896 30.0027 88.96 29.5813 88.96 29.112C88.96 28.5893 88.8693 28.1147 88.688 27.688C88.5173 27.2613 88.2613 26.8987 87.92 26.6C87.5893 26.2907 87.184 26.056 86.704 25.896C86.2347 25.7253 85.7013 25.64 85.104 25.64C84.6027 25.64 84.1547 25.6933 83.76 25.8C83.3653 25.896 83.0027 26.0453 82.672 26.248C82.352 26.44 82.048 26.68 81.76 26.968C81.4827 27.256 81.2053 27.5867 80.928 27.96L82.656 29.352C83.072 28.84 83.4453 28.4613 83.776 28.216C84.1173 27.9707 84.5067 27.848 84.944 27.848ZM96.6088 25.72L90.4648 32.84L90.8648 34.584H96.3368V37H98.6888V34.584H100.193V32.584H98.6888V25.72H96.6088ZM96.3368 32.584H93.3608L96.3368 29.096V32.584ZM111.816 37V25.8H109.352V30.232H104.808V25.8H102.344V37H104.808V32.504H109.352V37H111.816Z" fill="#0079C7"/>
<path d="M29.3165 9.53622C29.3165 8.76317 28.9943 8.1187 28.5435 7.60313C28.028 7.08761 27.3839 6.83008 26.6104 6.83008C25.1286 6.83008 23.9042 8.05441 23.9042 9.53624V12.1133H29.3164L29.3165 9.53622Z" fill="#DDEDF8"/>
<path d="M26.6107 5.21935C27.1905 5.21935 27.6417 4.76811 27.6417 4.18833V1.03102C27.6417 0.451234 27.1905 0 26.6107 0C26.0309 0 25.5797 0.451246 25.5797 1.03102V4.18833C25.5797 4.76857 26.0304 5.21935 26.6107 5.21935Z" fill="#DDEDF8"/>
<path d="M22.1012 6.44341C22.2945 6.63667 22.5525 6.76566 22.81 6.76566C23.0675 6.76566 23.3255 6.63667 23.5188 6.44341C23.9053 6.05688 23.9053 5.41238 23.5188 5.02589L21.3282 2.8353C20.9417 2.44878 20.2972 2.44878 19.9107 2.8353C19.5242 3.22183 19.5242 3.86633 19.9107 4.25282L22.1012 6.44341Z" fill="#DDEDF8"/>
<path d="M18.1061 10.5672H21.2634C21.8432 10.5672 22.2944 10.1159 22.2944 9.53615C22.2944 8.95636 21.8432 8.50513 21.2634 8.50513H18.1061C17.5263 8.50513 17.0751 8.95637 17.0751 9.53615C17.0751 10.1164 17.5263 10.5672 18.1061 10.5672Z" fill="#DDEDF8"/>
<path d="M30.9277 9.53639C30.9277 10.1162 31.3789 10.5674 31.9587 10.5674H35.116C35.6958 10.5674 36.147 10.1162 36.147 9.53639C36.147 8.95661 35.6958 8.50537 35.116 8.50537H31.9587C31.3785 8.56964 30.9277 9.02089 30.9277 9.53639Z" fill="#DDEDF8"/>
<path d="M30.3476 6.76566C30.6051 6.76566 30.8631 6.63667 31.0563 6.44341L33.2469 4.25282C33.6335 3.86629 33.6335 3.2218 33.2469 2.8353C32.8604 2.44878 32.2159 2.44878 31.8294 2.8353L29.6388 5.02589C29.2523 5.41242 29.2523 6.05692 29.6388 6.44341C29.8321 6.63667 30.0896 6.76566 30.3476 6.76566H30.3476Z" fill="#DDEDF8"/>
<path d="M57.9248 29.5747L48.1309 28.2862L42.5254 18.428C40.9789 15.7862 38.1442 14.111 35.0511 14.111L3.8014 14.1106C1.73933 14.1106 0 15.7857 0 17.912V40.5922C0 42.6543 1.67513 44.3936 3.8014 44.3936H6.57177C6.57177 39.8187 10.3088 36.0821 14.8833 36.0821C19.4583 36.0821 23.1949 39.8191 23.1949 44.3936H38.0143C38.0143 39.8187 41.7514 36.0821 46.3259 36.0821C50.9008 36.0821 54.6375 39.8191 54.6375 44.3936H57.4078C59.4699 44.3936 61.2092 42.7185 61.2092 40.5922L61.2106 33.3112C61.2106 31.3786 59.7931 29.8321 57.9246 29.5745L57.9248 29.5747ZM20.2962 26.2241C20.2962 26.6754 19.974 26.9972 19.5232 26.9972H16.1726V30.3478C16.1726 30.799 15.8503 31.1208 15.3995 31.1208H12.6934C12.2421 31.1208 11.9203 30.7986 11.9203 30.3478V26.9972H8.5697C8.11846 26.9972 7.79665 26.6749 7.79665 26.2241V23.518C7.79665 23.0667 8.1189 22.7449 8.5697 22.7449L11.9203 22.7445V19.3938C11.9203 18.9426 12.2426 18.6208 12.6934 18.6208H15.3995C15.8508 18.6208 16.1726 18.9431 16.1726 19.3938V22.7445H19.5232C19.9744 22.7445 20.2962 23.0667 20.2962 23.5175V26.2241ZM41.1723 27.9639H29.6389C29.4457 27.9639 29.2524 27.8349 29.2524 27.6417L28.5432 19.8451C28.5432 19.6518 28.6722 19.4586 28.9297 19.4586H35.0507C36.2102 19.4586 37.306 20.1031 37.8858 21.0694L41.5587 27.4483C41.6234 27.7058 41.4297 27.9638 41.1722 27.9638L41.1723 27.9639Z" fill="#DDEDF8"/>
<path d="M20.5543 44.3298C20.5543 47.4611 18.0159 50 14.8842 50C11.7529 50 9.21399 47.4611 9.21399 44.3298C9.21399 41.1985 11.7529 38.6597 14.8842 38.6597C18.0159 38.6597 20.5543 41.1985 20.5543 44.3298Z" fill="#DDEDF8"/>
<path d="M51.9971 44.3298C51.9971 47.4611 49.4582 50 46.3269 50C43.1951 50 40.6567 47.4611 40.6567 44.3298C40.6567 41.1985 43.1951 38.6597 46.3269 38.6597C49.4582 38.6597 51.9971 41.1985 51.9971 44.3298Z" fill="#DDEDF8"/>
</svg>
