<svg width="164" height="50" viewBox="0 0 164 50" fill="none" xmlns="http://www.w3.org/2000/svg">
<path d="M80.824 13.072V10.8H71.544V13.072H74.952V22H77.416V13.072H80.824ZM90.463 17.952V17.92C90.463 17.312 90.3777 16.7307 90.207 16.176C90.047 15.6107 89.791 15.1147 89.439 14.688C89.0977 14.2507 88.6657 13.904 88.143 13.648C87.6203 13.392 87.0017 13.264 86.287 13.264C85.6577 13.264 85.0817 13.3813 84.559 13.616C84.047 13.8507 83.6043 14.1707 83.231 14.576C82.8577 14.9813 82.5643 15.456 82.351 16C82.1483 16.544 82.047 17.12 82.047 17.728V17.76C82.047 18.4213 82.159 19.024 82.383 19.568C82.607 20.1013 82.9163 20.5653 83.311 20.96C83.7163 21.3547 84.191 21.6587 84.735 21.872C85.2897 22.0853 85.887 22.192 86.527 22.192C87.3057 22.192 87.983 22.0533 88.559 21.776C89.135 21.488 89.6257 21.0933 90.031 20.592L88.639 19.36C88.2977 19.6693 87.967 19.8933 87.647 20.032C87.327 20.1707 86.9643 20.24 86.559 20.24C86.015 20.24 85.5563 20.1013 85.183 19.824C84.8203 19.536 84.5803 19.1147 84.463 18.56H90.431C90.4417 18.4427 90.447 18.3413 90.447 18.256C90.4577 18.1707 90.463 18.0693 90.463 17.952ZM88.095 17.04H84.431C84.527 16.4853 84.7297 16.0427 85.039 15.712C85.359 15.3813 85.775 15.216 86.287 15.216C86.799 15.216 87.2097 15.3867 87.519 15.728C87.8283 16.0587 88.0203 16.496 88.095 17.04ZM99.8275 20.624L98.4035 19.184C98.1048 19.4613 97.8008 19.6853 97.4915 19.856C97.1928 20.016 96.8408 20.096 96.4355 20.096C96.1048 20.096 95.8062 20.0373 95.5395 19.92C95.2728 19.792 95.0435 19.6213 94.8515 19.408C94.6595 19.1947 94.5102 18.944 94.4035 18.656C94.3075 18.368 94.2595 18.0587 94.2595 17.728V17.696C94.2595 17.376 94.3075 17.0773 94.4035 16.8C94.5102 16.512 94.6542 16.2613 94.8355 16.048C95.0275 15.8347 95.2462 15.6693 95.4915 15.552C95.7475 15.424 96.0302 15.36 96.3395 15.36C96.7768 15.36 97.1395 15.4453 97.4275 15.616C97.7262 15.7867 98.0142 16.016 98.2915 16.304L99.7795 14.704C99.3742 14.256 98.9048 13.904 98.3715 13.648C97.8382 13.392 97.1662 13.264 96.3555 13.264C95.6942 13.264 95.0862 13.3813 94.5315 13.616C93.9875 13.8507 93.5182 14.1707 93.1235 14.576C92.7288 14.9813 92.4195 15.456 92.1955 16C91.9715 16.544 91.8595 17.12 91.8595 17.728V17.76C91.8595 18.368 91.9715 18.944 92.1955 19.488C92.4195 20.0213 92.7288 20.4907 93.1235 20.896C93.5182 21.2907 93.9875 21.6053 94.5315 21.84C95.0862 22.0747 95.6835 22.192 96.3235 22.192C97.1768 22.192 97.8702 22.048 98.4035 21.76C98.9368 21.4613 99.4115 21.0827 99.8275 20.624ZM109.272 22V16.448C109.272 15.456 109.016 14.6773 108.504 14.112C108.003 13.5467 107.288 13.264 106.36 13.264C106.051 13.264 105.773 13.3013 105.528 13.376C105.283 13.4507 105.059 13.552 104.856 13.68C104.653 13.808 104.467 13.9573 104.296 14.128C104.136 14.288 103.987 14.4587 103.848 14.64V13.424H101.416V22H103.848V17.216C103.848 16.64 103.981 16.208 104.248 15.92C104.525 15.6213 104.899 15.472 105.368 15.472C105.837 15.472 106.2 15.6213 106.456 15.92C106.712 16.208 106.84 16.64 106.84 17.216V22H109.272ZM120.249 17.728V17.696C120.249 17.0773 120.132 16.5013 119.897 15.968C119.662 15.424 119.337 14.9547 118.921 14.56C118.516 14.1547 118.03 13.84 117.465 13.616C116.9 13.3813 116.286 13.264 115.625 13.264C114.953 13.264 114.334 13.3813 113.769 13.616C113.204 13.8507 112.713 14.1707 112.297 14.576C111.881 14.9813 111.556 15.456 111.321 16C111.086 16.5333 110.969 17.1093 110.969 17.728V17.76C110.969 18.3787 111.086 18.96 111.321 19.504C111.556 20.0373 111.876 20.5067 112.281 20.912C112.697 21.3067 113.188 21.6213 113.753 21.856C114.318 22.08 114.932 22.192 115.593 22.192C116.265 22.192 116.884 22.0747 117.449 21.84C118.014 21.6053 118.505 21.2853 118.921 20.88C119.337 20.4747 119.662 20.0053 119.897 19.472C120.132 18.928 120.249 18.3467 120.249 17.728ZM117.849 17.76C117.849 18.08 117.796 18.384 117.689 18.672C117.593 18.9493 117.449 19.1947 117.257 19.408C117.065 19.6213 116.83 19.792 116.553 19.92C116.286 20.0373 115.977 20.096 115.625 20.096C115.284 20.096 114.974 20.032 114.697 19.904C114.43 19.776 114.196 19.6053 113.993 19.392C113.79 19.168 113.636 18.9173 113.529 18.64C113.422 18.352 113.369 18.048 113.369 17.728V17.696C113.369 17.376 113.417 17.0773 113.513 16.8C113.62 16.512 113.769 16.2613 113.961 16.048C114.153 15.8347 114.382 15.6693 114.649 15.552C114.926 15.424 115.241 15.36 115.593 15.36C115.924 15.36 116.228 15.424 116.505 15.552C116.782 15.68 117.022 15.856 117.225 16.08C117.428 16.2933 117.582 16.544 117.689 16.832C117.796 17.1093 117.849 17.408 117.849 17.728V17.76ZM124.554 22V10.32H122.122V22H124.554ZM135.702 17.728V17.696C135.702 17.0773 135.585 16.5013 135.35 15.968C135.115 15.424 134.79 14.9547 134.374 14.56C133.969 14.1547 133.483 13.84 132.918 13.616C132.353 13.3813 131.739 13.264 131.078 13.264C130.406 13.264 129.787 13.3813 129.222 13.616C128.657 13.8507 128.166 14.1707 127.75 14.576C127.334 14.9813 127.009 15.456 126.774 16C126.539 16.5333 126.422 17.1093 126.422 17.728V17.76C126.422 18.3787 126.539 18.96 126.774 19.504C127.009 20.0373 127.329 20.5067 127.734 20.912C128.15 21.3067 128.641 21.6213 129.206 21.856C129.771 22.08 130.385 22.192 131.046 22.192C131.718 22.192 132.337 22.0747 132.902 21.84C133.467 21.6053 133.958 21.2853 134.374 20.88C134.79 20.4747 135.115 20.0053 135.35 19.472C135.585 18.928 135.702 18.3467 135.702 17.728ZM133.302 17.76C133.302 18.08 133.249 18.384 133.142 18.672C133.046 18.9493 132.902 19.1947 132.71 19.408C132.518 19.6213 132.283 19.792 132.006 19.92C131.739 20.0373 131.43 20.096 131.078 20.096C130.737 20.096 130.427 20.032 130.15 19.904C129.883 19.776 129.649 19.6053 129.446 19.392C129.243 19.168 129.089 18.9173 128.982 18.64C128.875 18.352 128.822 18.048 128.822 17.728V17.696C128.822 17.376 128.87 17.0773 128.966 16.8C129.073 16.512 129.222 16.2613 129.414 16.048C129.606 15.8347 129.835 15.6693 130.102 15.552C130.379 15.424 130.694 15.36 131.046 15.36C131.377 15.36 131.681 15.424 131.958 15.552C132.235 15.68 132.475 15.856 132.678 16.08C132.881 16.2933 133.035 16.544 133.142 16.832C133.249 17.1093 133.302 17.408 133.302 17.728V17.76ZM146.087 20.064V13.424H143.655V14.544C143.324 14.1813 142.946 13.8773 142.519 13.632C142.092 13.3867 141.548 13.264 140.887 13.264C140.396 13.264 139.922 13.3547 139.463 13.536C139.004 13.7067 138.599 13.9627 138.247 14.304C137.895 14.6453 137.612 15.0667 137.399 15.568C137.186 16.0587 137.079 16.624 137.079 17.264V17.296C137.079 17.936 137.18 18.5067 137.383 19.008C137.596 19.4987 137.879 19.9147 138.231 20.256C138.583 20.5973 138.988 20.8587 139.447 21.04C139.906 21.2107 140.386 21.296 140.887 21.296C141.538 21.296 142.076 21.1733 142.503 20.928C142.93 20.6827 143.324 20.3413 143.687 19.904V20.32C143.687 21.088 143.484 21.6693 143.079 22.064C142.684 22.4587 142.071 22.656 141.239 22.656C140.663 22.656 140.146 22.5867 139.687 22.448C139.239 22.3093 138.791 22.1173 138.343 21.872L137.511 23.696C138.055 23.984 138.647 24.2027 139.287 24.352C139.927 24.512 140.599 24.592 141.303 24.592C142.103 24.592 142.802 24.5067 143.399 24.336C143.996 24.1653 144.492 23.8987 144.887 23.536C145.292 23.1733 145.591 22.704 145.783 22.128C145.986 21.5627 146.087 20.8747 146.087 20.064ZM143.687 17.296C143.687 17.584 143.634 17.8507 143.527 18.096C143.42 18.3413 143.271 18.5547 143.079 18.736C142.898 18.9067 142.679 19.04 142.423 19.136C142.167 19.232 141.89 19.28 141.591 19.28C140.994 19.28 140.498 19.0987 140.103 18.736C139.708 18.3733 139.511 17.8933 139.511 17.296V17.264C139.511 16.976 139.564 16.7093 139.671 16.464C139.778 16.2187 139.922 16.0107 140.103 15.84C140.295 15.6587 140.514 15.52 140.759 15.424C141.015 15.328 141.292 15.28 141.591 15.28C141.89 15.28 142.167 15.328 142.423 15.424C142.679 15.52 142.898 15.6587 143.079 15.84C143.271 16.0107 143.42 16.2187 143.527 16.464C143.634 16.7093 143.687 16.976 143.687 17.264V17.296ZM150.868 12.48V10.32H148.308V12.48H150.868ZM150.804 22V13.424H148.372V22H150.804ZM160.464 22V17.024C160.464 15.8613 160.16 14.9547 159.552 14.304C158.944 13.6533 157.973 13.328 156.64 13.328C155.915 13.328 155.296 13.392 154.784 13.52C154.272 13.648 153.781 13.8133 153.312 14.016L153.92 15.872C154.315 15.7227 154.688 15.6107 155.04 15.536C155.403 15.4507 155.819 15.408 156.288 15.408C156.896 15.408 157.355 15.5413 157.664 15.808C157.973 16.0747 158.128 16.464 158.128 16.976V17.12C157.819 17.0133 157.499 16.928 157.168 16.864C156.848 16.8 156.469 16.768 156.032 16.768C155.52 16.768 155.051 16.8267 154.624 16.944C154.208 17.0507 153.845 17.216 153.536 17.44C153.237 17.664 153.003 17.9467 152.832 18.288C152.661 18.6293 152.576 19.0347 152.576 19.504V19.536C152.576 19.9627 152.651 20.3413 152.8 20.672C152.96 20.992 153.173 21.264 153.44 21.488C153.707 21.712 154.016 21.8827 154.368 22C154.731 22.1067 155.115 22.16 155.52 22.16C156.117 22.16 156.624 22.064 157.04 21.872C157.456 21.6693 157.813 21.4027 158.112 21.072V22H160.464ZM158.16 18.976C158.16 19.424 157.984 19.7867 157.632 20.064C157.291 20.3413 156.832 20.48 156.256 20.48C155.861 20.48 155.541 20.3893 155.296 20.208C155.051 20.0267 154.928 19.7707 154.928 19.44V19.408C154.928 19.024 155.077 18.7307 155.376 18.528C155.675 18.3253 156.085 18.224 156.608 18.224C156.907 18.224 157.184 18.256 157.44 18.32C157.707 18.3733 157.947 18.448 158.16 18.544V18.976Z" fill="#0D1746"/>
<path d="M80.712 37V25.32H78.28V29.544C77.992 29.2027 77.6347 28.904 77.208 28.648C76.792 28.392 76.2587 28.264 75.608 28.264C75.096 28.264 74.6053 28.36 74.136 28.552C73.6667 28.744 73.2507 29.032 72.888 29.416C72.536 29.7893 72.248 30.2533 72.024 30.808C71.8107 31.352 71.704 31.9813 71.704 32.696V32.728C71.704 33.4427 71.8107 34.0773 72.024 34.632C72.248 35.176 72.5413 35.64 72.904 36.024C73.2667 36.3973 73.6827 36.68 74.152 36.872C74.6213 37.064 75.1067 37.16 75.608 37.16C76.248 37.16 76.776 37.032 77.192 36.776C77.6187 36.5093 77.9813 36.1733 78.28 35.768V37H80.712ZM78.312 32.728C78.312 33.08 78.2533 33.4053 78.136 33.704C78.0293 33.992 77.88 34.2427 77.688 34.456C77.5067 34.6587 77.288 34.8187 77.032 34.936C76.7867 35.0427 76.52 35.096 76.232 35.096C75.944 35.096 75.672 35.0427 75.416 34.936C75.1707 34.8187 74.952 34.6587 74.76 34.456C74.568 34.2427 74.4133 33.992 74.296 33.704C74.1893 33.4053 74.136 33.08 74.136 32.728V32.696C74.136 32.3333 74.1893 32.008 74.296 31.72C74.4133 31.432 74.568 31.1867 74.76 30.984C74.952 30.7707 75.1707 30.6107 75.416 30.504C75.672 30.3867 75.944 30.328 76.232 30.328C76.52 30.328 76.7867 30.3867 77.032 30.504C77.288 30.6107 77.5067 30.7707 77.688 30.984C77.88 31.1867 78.0293 31.4373 78.136 31.736C78.2533 32.024 78.312 32.344 78.312 32.696V32.728ZM90.8849 32.952V32.92C90.8849 32.312 90.7995 31.7307 90.6289 31.176C90.4689 30.6107 90.2129 30.1147 89.8609 29.688C89.5195 29.2507 89.0875 28.904 88.5649 28.648C88.0422 28.392 87.4235 28.264 86.7089 28.264C86.0795 28.264 85.5035 28.3813 84.9809 28.616C84.4689 28.8507 84.0262 29.1707 83.6529 29.576C83.2795 29.9813 82.9862 30.456 82.7729 31C82.5702 31.544 82.4689 32.12 82.4689 32.728V32.76C82.4689 33.4213 82.5809 34.024 82.8049 34.568C83.0289 35.1013 83.3382 35.5653 83.7329 35.96C84.1382 36.3547 84.6129 36.6587 85.1569 36.872C85.7115 37.0853 86.3089 37.192 86.9489 37.192C87.7275 37.192 88.4049 37.0533 88.9809 36.776C89.5569 36.488 90.0475 36.0933 90.4529 35.592L89.0609 34.36C88.7195 34.6693 88.3889 34.8933 88.0689 35.032C87.7489 35.1707 87.3862 35.24 86.9809 35.24C86.4369 35.24 85.9782 35.1013 85.6049 34.824C85.2422 34.536 85.0022 34.1147 84.8849 33.56H90.8529C90.8635 33.4427 90.8689 33.3413 90.8689 33.256C90.8795 33.1707 90.8849 33.0693 90.8849 32.952ZM88.5169 32.04H84.8529C84.9489 31.4853 85.1515 31.0427 85.4609 30.712C85.7809 30.3813 86.1969 30.216 86.7089 30.216C87.2209 30.216 87.6315 30.3867 87.9409 30.728C88.2502 31.0587 88.4422 31.496 88.5169 32.04ZM106.614 29.704V29.672C106.614 29.096 106.513 28.5733 106.31 28.104C106.118 27.624 105.836 27.2133 105.462 26.872C105.1 26.5307 104.652 26.2693 104.118 26.088C103.596 25.896 102.998 25.8 102.326 25.8H97.7503V37H100.214V33.64H102.086C102.716 33.64 103.302 33.56 103.846 33.4C104.401 33.2293 104.881 32.9787 105.286 32.648C105.702 32.3173 106.028 31.9067 106.262 31.416C106.497 30.9253 106.614 30.3547 106.614 29.704ZM104.118 29.752C104.118 30.232 103.948 30.6373 103.606 30.968C103.265 31.288 102.785 31.448 102.166 31.448H100.214V28.024H102.118C102.737 28.024 103.222 28.168 103.574 28.456C103.937 28.744 104.118 29.1653 104.118 29.72V29.752ZM117.046 32.728V32.696C117.046 32.0773 116.928 31.5013 116.694 30.968C116.459 30.424 116.134 29.9547 115.718 29.56C115.312 29.1547 114.827 28.84 114.262 28.616C113.696 28.3813 113.083 28.264 112.422 28.264C111.75 28.264 111.131 28.3813 110.566 28.616C110 28.8507 109.51 29.1707 109.094 29.576C108.678 29.9813 108.352 30.456 108.118 31C107.883 31.5333 107.766 32.1093 107.766 32.728V32.76C107.766 33.3787 107.883 33.96 108.118 34.504C108.352 35.0373 108.672 35.5067 109.078 35.912C109.494 36.3067 109.984 36.6213 110.55 36.856C111.115 37.08 111.728 37.192 112.39 37.192C113.062 37.192 113.68 37.0747 114.246 36.84C114.811 36.6053 115.302 36.2853 115.718 35.88C116.134 35.4747 116.459 35.0053 116.694 34.472C116.928 33.928 117.046 33.3467 117.046 32.728ZM114.646 32.76C114.646 33.08 114.592 33.384 114.486 33.672C114.39 33.9493 114.246 34.1947 114.054 34.408C113.862 34.6213 113.627 34.792 113.35 34.92C113.083 35.0373 112.774 35.096 112.422 35.096C112.08 35.096 111.771 35.032 111.494 34.904C111.227 34.776 110.992 34.6053 110.79 34.392C110.587 34.168 110.432 33.9173 110.326 33.64C110.219 33.352 110.166 33.048 110.166 32.728V32.696C110.166 32.376 110.214 32.0773 110.31 31.8C110.416 31.512 110.566 31.2613 110.758 31.048C110.95 30.8347 111.179 30.6693 111.446 30.552C111.723 30.424 112.038 30.36 112.39 30.36C112.72 30.36 113.024 30.424 113.302 30.552C113.579 30.68 113.819 30.856 114.022 31.08C114.224 31.2933 114.379 31.544 114.486 31.832C114.592 32.1093 114.646 32.408 114.646 32.728V32.76ZM126.663 37V31.448C126.663 30.456 126.407 29.6773 125.895 29.112C125.393 28.5467 124.679 28.264 123.751 28.264C123.441 28.264 123.164 28.3013 122.919 28.376C122.673 28.4507 122.449 28.552 122.247 28.68C122.044 28.808 121.857 28.9573 121.687 29.128C121.527 29.288 121.377 29.4587 121.239 29.64V28.424H118.807V37H121.239V32.216C121.239 31.64 121.372 31.208 121.639 30.92C121.916 30.6213 122.289 30.472 122.759 30.472C123.228 30.472 123.591 30.6213 123.847 30.92C124.103 31.208 124.231 31.64 124.231 32.216V37H126.663ZM133.592 36.648V34.696C133.218 34.8987 132.818 35 132.391 35C131.869 35 131.608 34.7227 131.608 34.168V30.504H133.624V28.424H131.608V26.232H129.176V28.424H128.152V30.504H129.176V34.568C129.176 35.0693 129.234 35.4853 129.352 35.816C129.48 36.136 129.65 36.3973 129.864 36.6C130.088 36.8027 130.349 36.9413 130.648 37.016C130.957 37.1013 131.298 37.144 131.672 37.144C132.077 37.144 132.434 37.096 132.744 37C133.053 36.9147 133.336 36.7973 133.592 36.648ZM142.792 37V32.024C142.792 30.8613 142.488 29.9547 141.88 29.304C141.272 28.6533 140.301 28.328 138.968 28.328C138.243 28.328 137.624 28.392 137.112 28.52C136.6 28.648 136.109 28.8133 135.64 29.016L136.248 30.872C136.643 30.7227 137.016 30.6107 137.368 30.536C137.731 30.4507 138.147 30.408 138.616 30.408C139.224 30.408 139.683 30.5413 139.992 30.808C140.301 31.0747 140.456 31.464 140.456 31.976V32.12C140.147 32.0133 139.827 31.928 139.496 31.864C139.176 31.8 138.797 31.768 138.36 31.768C137.848 31.768 137.379 31.8267 136.952 31.944C136.536 32.0507 136.173 32.216 135.864 32.44C135.565 32.664 135.331 32.9467 135.16 33.288C134.989 33.6293 134.904 34.0347 134.904 34.504V34.536C134.904 34.9627 134.979 35.3413 135.128 35.672C135.288 35.992 135.501 36.264 135.768 36.488C136.035 36.712 136.344 36.8827 136.696 37C137.059 37.1067 137.443 37.16 137.848 37.16C138.445 37.16 138.952 37.064 139.368 36.872C139.784 36.6693 140.141 36.4027 140.44 36.072V37H142.792ZM140.488 33.976C140.488 34.424 140.312 34.7867 139.96 35.064C139.619 35.3413 139.16 35.48 138.584 35.48C138.189 35.48 137.869 35.3893 137.624 35.208C137.379 35.0267 137.256 34.7707 137.256 34.44V34.408C137.256 34.024 137.405 33.7307 137.704 33.528C138.003 33.3253 138.413 33.224 138.936 33.224C139.235 33.224 139.512 33.256 139.768 33.32C140.035 33.3733 140.275 33.448 140.488 33.544V33.976Z" fill="#0079C7"/>
<path d="M53.1248 5.03671C53.1346 3.80518 52.698 2.61409 51.8996 1.69132C51.1012 0.767855 49.997 0.177645 48.7979 0.0342793C47.5996 -0.10908 46.3915 0.203568 45.4048 0.913506C44.4187 1.62268 43.7235 2.67883 43.4537 3.87842C43.1838 5.07867 43.3572 6.33773 43.9418 7.41512C44.5257 8.49184 45.4796 9.31159 46.6196 9.71572V21.5765C46.6196 22.8653 46.1232 24.1022 45.2373 25.0203L40.9509 29.3927L40.9501 27.4688C40.9501 25.66 40.2459 23.9245 38.9915 22.6456C37.7371 21.3661 36.0365 20.6478 34.2632 20.6478H28.1645V9.71582C29.635 9.19422 30.7743 7.99168 31.2356 6.47565C31.6961 4.95969 31.4232 3.31025 30.4999 2.03218C29.5767 0.754894 28.1136 0 26.5572 0C25.0007 0 23.5378 0.754933 22.6144 2.03218C21.6911 3.31023 21.4183 4.95961 21.8788 6.47565C22.34 7.9916 23.4793 9.1942 24.9498 9.71582V20.6478H18.8512C17.0817 20.6501 15.3847 21.3692 14.1333 22.6456C12.8819 23.9222 12.1776 25.6523 12.1747 27.4581V29.3927L7.88826 25.0203C7.00687 24.1075 6.51123 22.8797 6.50524 21.5987V9.71586C7.97572 9.19426 9.11507 7.99172 9.57629 6.47569C10.0368 4.95973 9.76393 3.31029 8.84067 2.03222C7.91742 0.754933 6.45438 3.87235e-05 4.8979 3.87235e-05C3.34146 3.87235e-05 1.87852 0.754972 0.955124 2.03222C0.0318774 3.31027 -0.240989 4.95965 0.219505 6.47569C0.680765 7.99164 1.82006 9.19424 3.29055 9.71586V21.5767C3.28382 23.7301 4.12109 25.7959 5.61541 27.3164L11.8314 33.6569V33.6562C11.9413 33.7492 12.0594 33.8293 12.185 33.8971V43.1897V43.189C12.188 44.9947 12.8922 46.7257 14.1443 48.0022C15.3958 49.2787 17.0919 49.9971 18.8622 50H34.2629C36.0324 49.997 37.7294 49.2786 38.9808 48.0022C40.2322 46.7257 40.9365 44.9947 40.9394 43.189V33.8964V33.8971C41.065 33.8293 41.1838 33.7492 41.293 33.6562L47.5089 27.3156V27.3164C49.0041 25.7958 49.8415 23.7301 49.8346 21.5767V9.71586C50.7915 9.3811 51.6228 8.75122 52.2126 7.9124C52.8025 7.07359 53.1209 6.06855 53.1247 5.0369L53.1248 5.03671ZM37.7241 43.1894C37.7241 44.1266 37.3593 45.0241 36.7104 45.6868C36.0607 46.3487 35.1808 46.7208 34.2628 46.7208H18.8509C17.9329 46.7208 17.053 46.3487 16.4034 45.6868C15.7545 45.0241 15.3897 44.1266 15.3897 43.1894V27.4694C15.3867 26.5314 15.75 25.6301 16.3997 24.9659C17.0493 24.301 17.9314 23.9273 18.851 23.9273H34.2629C35.1809 23.9273 36.0608 24.2995 36.7104 24.9621C37.3593 25.624 37.7241 26.5223 37.7241 27.4587L37.7241 43.1894ZM32.8372 31.0441V39.6152C32.8372 40.7865 31.9065 41.7358 30.7583 41.7358H22.3556C21.2074 41.7358 20.2767 40.7864 20.2767 39.6152V31.0441C20.2767 29.8728 21.2074 28.9235 22.3556 28.9235H30.7583C31.9065 28.9235 32.8372 29.8729 32.8372 31.0441Z" fill="#DDEDF8"/>
</svg>
