<svg width="38" height="38" viewBox="0 0 38 38" fill="none" xmlns="http://www.w3.org/2000/svg">
	<g clip-path="url(#clip0_161_2)">
		<path d="M15.0626 17.4375C14.4404 17.4375 13.9376 17.9402 13.9376 18.5625C13.9376 19.1848 14.4404 19.6875 15.0626 19.6875C15.6849 19.6875 16.1876 19.1848 16.1876 18.5625C16.1876 17.9402 15.6849 17.4375 15.0626 17.4375ZM19.0001 17.4375C18.3779 17.4375 17.8751 17.9402 17.8751 18.5625C17.8751 19.1848 18.3779 19.6875 19.0001 19.6875C19.6224 19.6875 20.1251 19.1848 20.1251 18.5625C20.1251 17.9402 19.6224 17.4375 19.0001 17.4375ZM22.9376 17.4375C22.3154 17.4375 21.8126 17.9402 21.8126 18.5625C21.8126 19.1848 22.3154 19.6875 22.9376 19.6875C23.5599 19.6875 24.0626 19.1848 24.0626 18.5625C24.0626 17.9402 23.5599 17.4375 22.9376 17.4375ZM19.0001 11.25C14.029 11.25 10.0001 14.523 10.0001 18.5625C10.0001 20.2359 10.6997 21.7687 11.8599 23.0027C11.3361 24.3879 10.2462 25.5621 10.2287 25.5762C9.99662 25.8223 9.93334 26.1809 10.0669 26.4902C10.2005 26.7996 10.5064 27 10.8439 27C13.006 27 14.7111 26.0965 15.7341 25.3723C16.7501 25.6922 17.847 25.875 19.0001 25.875C23.9712 25.875 28.0001 22.602 28.0001 18.5625C28.0001 14.523 23.9712 11.25 19.0001 11.25ZM19.0001 24.1875C18.0615 24.1875 17.1333 24.0434 16.2439 23.7621L15.4458 23.509L14.7603 23.9941C14.2576 24.3492 13.5685 24.7465 12.7388 25.0137C12.9954 24.5883 13.2451 24.1102 13.4384 23.6004L13.8111 22.6125L13.0869 21.8461C12.4505 21.1676 11.6876 20.0461 11.6876 18.5625C11.6876 15.4617 14.9677 12.9375 19.0001 12.9375C23.0326 12.9375 26.3126 15.4617 26.3126 18.5625C26.3126 21.6633 23.0326 24.1875 19.0001 24.1875Z" fill="#4D4D4D">
		</path>
	</g>
	<circle cx="19" cy="19" r="18.5" stroke="#4D4D4D">
	</circle>
	<defs>
		<clipPath id="clip0_161_2">
			<rect width="18" height="18" fill="white" transform="translate(10 9)">
			</rect>
		</clipPath>
	</defs>
</svg>
