<svg width="181" height="64" viewBox="0 0 181 64" fill="none" xmlns="http://www.w3.org/2000/svg">
<path d="M46.0996 22.128C45.2463 22.128 44.457 21.9893 43.7316 21.712C43.017 21.424 42.393 21.024 41.8596 20.512C41.337 19.9893 40.9263 19.3813 40.6276 18.688C40.329 17.9947 40.1796 17.232 40.1796 16.4C40.1796 15.568 40.329 14.8053 40.6276 14.112C40.9263 13.4187 41.3423 12.816 41.8756 12.304C42.409 11.7813 43.033 11.3813 43.7476 11.104C44.473 10.816 45.2623 10.672 46.1156 10.672C46.9796 10.672 47.7743 10.8213 48.4996 11.12C49.2356 11.408 49.8596 11.84 50.3716 12.416L49.3316 13.424C48.905 12.976 48.425 12.6453 47.8916 12.432C47.3583 12.208 46.7876 12.096 46.1796 12.096C45.5503 12.096 44.9636 12.2027 44.4196 12.416C43.8863 12.6293 43.4223 12.928 43.0276 13.312C42.633 13.696 42.3236 14.1547 42.0996 14.688C41.8863 15.2107 41.7796 15.7813 41.7796 16.4C41.7796 17.0187 41.8863 17.5947 42.0996 18.128C42.3236 18.6507 42.633 19.104 43.0276 19.488C43.4223 19.872 43.8863 20.1707 44.4196 20.384C44.9636 20.5973 45.5503 20.704 46.1796 20.704C46.7876 20.704 47.3583 20.5973 47.8916 20.384C48.425 20.16 48.905 19.8187 49.3316 19.36L50.3716 20.368C49.8596 20.944 49.2356 21.3813 48.4996 21.68C47.7743 21.9787 46.9743 22.128 46.0996 22.128ZM57.5847 22V20.208L57.5047 19.872V16.816C57.5047 16.1653 57.3127 15.664 56.9287 15.312C56.5554 14.9493 55.9901 14.768 55.2327 14.768C54.7314 14.768 54.2407 14.8533 53.7607 15.024C53.2807 15.184 52.8754 15.4027 52.5447 15.68L51.9047 14.528C52.3421 14.176 52.8647 13.9093 53.4727 13.728C54.0914 13.536 54.7367 13.44 55.4087 13.44C56.5714 13.44 57.4674 13.7227 58.0967 14.288C58.7261 14.8533 59.0407 15.7173 59.0407 16.88V22H57.5847ZM54.8007 22.096C54.1714 22.096 53.6167 21.9893 53.1367 21.776C52.6674 21.5627 52.3047 21.2693 52.0487 20.896C51.7927 20.512 51.6647 20.08 51.6647 19.6C51.6647 19.1413 51.7714 18.7253 51.9847 18.352C52.2087 17.9787 52.5661 17.68 53.0567 17.456C53.5581 17.232 54.2301 17.12 55.0727 17.12H57.7607V18.224H55.1367C54.3687 18.224 53.8514 18.352 53.5847 18.608C53.3181 18.864 53.1847 19.1733 53.1847 19.536C53.1847 19.952 53.3501 20.288 53.6807 20.544C54.0114 20.7893 54.4701 20.912 55.0567 20.912C55.6327 20.912 56.1341 20.784 56.5607 20.528C56.9981 20.272 57.3127 19.8987 57.5047 19.408L57.8087 20.464C57.6061 20.9653 57.2487 21.3653 56.7367 21.664C56.2247 21.952 55.5794 22.096 54.8007 22.096ZM61.8832 22V13.52H63.3552V15.824L63.2112 15.248C63.4459 14.6613 63.8406 14.2133 64.3952 13.904C64.9499 13.5947 65.6326 13.44 66.4432 13.44V14.928C66.3792 14.9173 66.3152 14.912 66.2512 14.912C66.1979 14.912 66.1446 14.912 66.0912 14.912C65.2699 14.912 64.6192 15.1573 64.1392 15.648C63.6592 16.1387 63.4192 16.848 63.4192 17.776V22H61.8832ZM71.5921 22.096C70.7388 22.096 70.0775 21.8667 69.6081 21.408C69.1388 20.9493 68.9041 20.2933 68.9041 19.44V11.664H70.4401V19.376C70.4401 19.8347 70.5521 20.1867 70.7761 20.432C71.0108 20.6773 71.3415 20.8 71.7681 20.8C72.2481 20.8 72.6481 20.6667 72.9681 20.4L73.4481 21.504C73.2135 21.7067 72.9308 21.856 72.6001 21.952C72.2801 22.048 71.9441 22.096 71.5921 22.096ZM67.4641 14.784V13.52H72.8721V14.784H67.4641ZM80.5691 22V20.208L80.4891 19.872V16.816C80.4891 16.1653 80.2971 15.664 79.9131 15.312C79.5398 14.9493 78.9745 14.768 78.2171 14.768C77.7158 14.768 77.2251 14.8533 76.7451 15.024C76.2651 15.184 75.8598 15.4027 75.5291 15.68L74.8891 14.528C75.3265 14.176 75.8491 13.9093 76.4571 13.728C77.0758 13.536 77.7211 13.44 78.3931 13.44C79.5558 13.44 80.4518 13.7227 81.0811 14.288C81.7105 14.8533 82.0251 15.7173 82.0251 16.88V22H80.5691ZM77.7851 22.096C77.1558 22.096 76.6011 21.9893 76.1211 21.776C75.6518 21.5627 75.2891 21.2693 75.0331 20.896C74.7771 20.512 74.6491 20.08 74.6491 19.6C74.6491 19.1413 74.7558 18.7253 74.9691 18.352C75.1931 17.9787 75.5505 17.68 76.0411 17.456C76.5425 17.232 77.2145 17.12 78.0571 17.12H80.7451V18.224H78.1211C77.3531 18.224 76.8358 18.352 76.5691 18.608C76.3025 18.864 76.1691 19.1733 76.1691 19.536C76.1691 19.952 76.3345 20.288 76.6651 20.544C76.9958 20.7893 77.4545 20.912 78.0411 20.912C78.6171 20.912 79.1185 20.784 79.5451 20.528C79.9825 20.272 80.2971 19.8987 80.4891 19.408L80.7931 20.464C80.5905 20.9653 80.2331 21.3653 79.7211 21.664C79.2091 21.952 78.5638 22.096 77.7851 22.096ZM79.6251 12.24C79.3691 12.24 79.1398 12.1867 78.9371 12.08C78.7451 11.9733 78.5691 11.8507 78.4091 11.712C78.2491 11.5627 78.0945 11.4347 77.9451 11.328C77.7958 11.2213 77.6465 11.168 77.4971 11.168C77.2625 11.168 77.0705 11.2587 76.9211 11.44C76.7825 11.6107 76.7025 11.8507 76.6811 12.16H75.8171C75.8385 11.5627 75.9878 11.088 76.2651 10.736C76.5425 10.384 76.9158 10.208 77.3851 10.208C77.6411 10.208 77.8705 10.2667 78.0731 10.384C78.2758 10.4907 78.4571 10.6187 78.6171 10.768C78.7771 10.9067 78.9265 11.0293 79.0651 11.136C79.2145 11.2427 79.3638 11.296 79.5131 11.296C79.7478 11.296 79.9398 11.2107 80.0891 11.04C80.2385 10.8693 80.3185 10.6347 80.3291 10.336H81.1931C81.1825 10.9013 81.0331 11.36 80.7451 11.712C80.4678 12.064 80.0945 12.24 79.6251 12.24ZM88.4996 22.096C87.6463 22.096 86.889 21.9093 86.2276 21.536C85.5663 21.1627 85.0436 20.6507 84.6596 20C84.2756 19.3387 84.0836 18.592 84.0836 17.76C84.0836 16.9173 84.2756 16.1707 84.6596 15.52C85.0436 14.8693 85.5663 14.3627 86.2276 14C86.889 13.6267 87.6463 13.44 88.4996 13.44C89.3423 13.44 90.0943 13.6267 90.7556 14C91.4276 14.3627 91.9503 14.8693 92.3236 15.52C92.7076 16.16 92.8996 16.9067 92.8996 17.76C92.8996 18.6027 92.7076 19.3493 92.3236 20C91.9503 20.6507 91.4276 21.1627 90.7556 21.536C90.0943 21.9093 89.3423 22.096 88.4996 22.096ZM88.4996 20.752C89.0436 20.752 89.529 20.6293 89.9556 20.384C90.393 20.1387 90.7343 19.792 90.9796 19.344C91.225 18.8853 91.3476 18.3573 91.3476 17.76C91.3476 17.152 91.225 16.6293 90.9796 16.192C90.7343 15.744 90.393 15.3973 89.9556 15.152C89.529 14.9067 89.0436 14.784 88.4996 14.784C87.9556 14.784 87.4703 14.9067 87.0436 15.152C86.617 15.3973 86.2756 15.744 86.0196 16.192C85.7636 16.6293 85.6356 17.152 85.6356 17.76C85.6356 18.3573 85.7636 18.8853 86.0196 19.344C86.2756 19.792 86.617 20.1387 87.0436 20.384C87.4703 20.6293 87.9556 20.752 88.4996 20.752ZM102.825 22.096C102.003 22.096 101.267 21.9147 100.617 21.552C99.9767 21.1893 99.4701 20.6827 99.0967 20.032C98.7234 19.3813 98.5367 18.624 98.5367 17.76C98.5367 16.896 98.7234 16.144 99.0967 15.504C99.4701 14.8533 99.9767 14.3467 100.617 13.984C101.267 13.6213 102.003 13.44 102.825 13.44C103.539 13.44 104.185 13.6 104.761 13.92C105.337 14.24 105.795 14.72 106.137 15.36C106.489 16 106.665 16.8 106.665 17.76C106.665 18.72 106.494 19.52 106.153 20.16C105.822 20.8 105.369 21.2853 104.793 21.616C104.217 21.936 103.561 22.096 102.825 22.096ZM102.953 20.752C103.486 20.752 103.966 20.6293 104.393 20.384C104.83 20.1387 105.171 19.792 105.417 19.344C105.673 18.8853 105.801 18.3573 105.801 17.76C105.801 17.152 105.673 16.6293 105.417 16.192C105.171 15.744 104.83 15.3973 104.393 15.152C103.966 14.9067 103.486 14.784 102.953 14.784C102.409 14.784 101.923 14.9067 101.497 15.152C101.07 15.3973 100.729 15.744 100.473 16.192C100.217 16.6293 100.089 17.152 100.089 17.76C100.089 18.3573 100.217 18.8853 100.473 19.344C100.729 19.792 101.07 20.1387 101.497 20.384C101.923 20.6293 102.409 20.752 102.953 20.752ZM105.849 22V19.712L105.945 17.744L105.785 15.776V10.128H107.321V22H105.849ZM114.003 22.096C113.096 22.096 112.296 21.9093 111.603 21.536C110.92 21.1627 110.387 20.6507 110.003 20C109.63 19.3493 109.443 18.6027 109.443 17.76C109.443 16.9173 109.624 16.1707 109.987 15.52C110.36 14.8693 110.867 14.3627 111.507 14C112.158 13.6267 112.888 13.44 113.699 13.44C114.52 13.44 115.246 13.6213 115.875 13.984C116.504 14.3467 116.995 14.8587 117.347 15.52C117.71 16.1707 117.891 16.9333 117.891 17.808C117.891 17.872 117.886 17.9467 117.875 18.032C117.875 18.1173 117.87 18.1973 117.859 18.272H110.643V17.168H117.059L116.435 17.552C116.446 17.008 116.334 16.5227 116.099 16.096C115.864 15.6693 115.539 15.3387 115.123 15.104C114.718 14.8587 114.243 14.736 113.699 14.736C113.166 14.736 112.691 14.8587 112.275 15.104C111.859 15.3387 111.534 15.6747 111.299 16.112C111.064 16.5387 110.947 17.0293 110.947 17.584V17.84C110.947 18.4053 111.075 18.912 111.331 19.36C111.598 19.7973 111.966 20.1387 112.435 20.384C112.904 20.6293 113.443 20.752 114.051 20.752C114.552 20.752 115.006 20.6667 115.411 20.496C115.827 20.3253 116.19 20.0693 116.499 19.728L117.347 20.72C116.963 21.168 116.483 21.5093 115.907 21.744C115.342 21.9787 114.707 22.096 114.003 22.096ZM128.017 22.096C127.153 22.096 126.379 21.9093 125.697 21.536C125.025 21.1627 124.497 20.6507 124.113 20C123.729 19.3493 123.537 18.6027 123.537 17.76C123.537 16.9173 123.729 16.1707 124.113 15.52C124.497 14.8693 125.025 14.3627 125.697 14C126.379 13.6267 127.153 13.44 128.017 13.44C128.785 13.44 129.467 13.5947 130.065 13.904C130.673 14.2027 131.142 14.6507 131.473 15.248L130.305 16C130.027 15.584 129.686 15.28 129.281 15.088C128.886 14.8853 128.459 14.784 128.001 14.784C127.446 14.784 126.95 14.9067 126.513 15.152C126.075 15.3973 125.729 15.744 125.473 16.192C125.217 16.6293 125.089 17.152 125.089 17.76C125.089 18.368 125.217 18.896 125.473 19.344C125.729 19.792 126.075 20.1387 126.513 20.384C126.95 20.6293 127.446 20.752 128.001 20.752C128.459 20.752 128.886 20.656 129.281 20.464C129.686 20.2613 130.027 19.952 130.305 19.536L131.473 20.272C131.142 20.8587 130.673 21.312 130.065 21.632C129.467 21.9413 128.785 22.096 128.017 22.096ZM133.461 22V13.52H134.933V15.824L134.789 15.248C135.024 14.6613 135.419 14.2133 135.973 13.904C136.528 13.5947 137.211 13.44 138.021 13.44V14.928C137.957 14.9173 137.893 14.912 137.829 14.912C137.776 14.912 137.723 14.912 137.669 14.912C136.848 14.912 136.197 15.1573 135.717 15.648C135.237 16.1387 134.997 16.848 134.997 17.776V22H133.461ZM143.612 22.096C142.706 22.096 141.906 21.9093 141.212 21.536C140.53 21.1627 139.996 20.6507 139.612 20C139.239 19.3493 139.052 18.6027 139.052 17.76C139.052 16.9173 139.234 16.1707 139.596 15.52C139.97 14.8693 140.476 14.3627 141.116 14C141.767 13.6267 142.498 13.44 143.308 13.44C144.13 13.44 144.855 13.6213 145.484 13.984C146.114 14.3467 146.604 14.8587 146.956 15.52C147.319 16.1707 147.5 16.9333 147.5 17.808C147.5 17.872 147.495 17.9467 147.484 18.032C147.484 18.1173 147.479 18.1973 147.468 18.272H140.252V17.168H146.668L146.044 17.552C146.055 17.008 145.943 16.5227 145.708 16.096C145.474 15.6693 145.148 15.3387 144.732 15.104C144.327 14.8587 143.852 14.736 143.308 14.736C142.775 14.736 142.3 14.8587 141.884 15.104C141.468 15.3387 141.143 15.6747 140.908 16.112C140.674 16.5387 140.556 17.0293 140.556 17.584V17.84C140.556 18.4053 140.684 18.912 140.94 19.36C141.207 19.7973 141.575 20.1387 142.044 20.384C142.514 20.6293 143.052 20.752 143.66 20.752C144.162 20.752 144.615 20.6667 145.02 20.496C145.436 20.3253 145.799 20.0693 146.108 19.728L146.956 20.72C146.572 21.168 146.092 21.5093 145.516 21.744C144.951 21.9787 144.316 22.096 143.612 22.096ZM142.092 12.288L144.268 10.208H146.22L143.532 12.288H142.092ZM153.137 22.096C152.316 22.096 151.58 21.9147 150.929 21.552C150.289 21.1893 149.783 20.6827 149.409 20.032C149.036 19.3813 148.849 18.624 148.849 17.76C148.849 16.896 149.036 16.144 149.409 15.504C149.783 14.8533 150.289 14.3467 150.929 13.984C151.58 13.6213 152.316 13.44 153.137 13.44C153.852 13.44 154.497 13.6 155.073 13.92C155.649 14.24 156.108 14.72 156.449 15.36C156.801 16 156.977 16.8 156.977 17.76C156.977 18.72 156.807 19.52 156.465 20.16C156.135 20.8 155.681 21.2853 155.105 21.616C154.529 21.936 153.873 22.096 153.137 22.096ZM153.265 20.752C153.799 20.752 154.279 20.6293 154.705 20.384C155.143 20.1387 155.484 19.792 155.729 19.344C155.985 18.8853 156.113 18.3573 156.113 17.76C156.113 17.152 155.985 16.6293 155.729 16.192C155.484 15.744 155.143 15.3973 154.705 15.152C154.279 14.9067 153.799 14.784 153.265 14.784C152.721 14.784 152.236 14.9067 151.809 15.152C151.383 15.3973 151.041 15.744 150.785 16.192C150.529 16.6293 150.401 17.152 150.401 17.76C150.401 18.3573 150.529 18.8853 150.785 19.344C151.041 19.792 151.383 20.1387 151.809 20.384C152.236 20.6293 152.721 20.752 153.265 20.752ZM156.161 22V19.712L156.257 17.744L156.097 15.776V10.128H157.633V22H156.161ZM160.539 22V13.52H162.075V22H160.539ZM161.307 11.888C161.009 11.888 160.758 11.792 160.555 11.6C160.363 11.408 160.267 11.1733 160.267 10.896C160.267 10.608 160.363 10.368 160.555 10.176C160.758 9.984 161.009 9.888 161.307 9.888C161.606 9.888 161.851 9.984 162.043 10.176C162.246 10.3573 162.347 10.5867 162.347 10.864C162.347 11.152 162.251 11.3973 162.059 11.6C161.867 11.792 161.617 11.888 161.307 11.888ZM167.92 22.096C167.067 22.096 166.406 21.8667 165.936 21.408C165.467 20.9493 165.232 20.2933 165.232 19.44V11.664H166.768V19.376C166.768 19.8347 166.88 20.1867 167.104 20.432C167.339 20.6773 167.67 20.8 168.096 20.8C168.576 20.8 168.976 20.6667 169.296 20.4L169.776 21.504C169.542 21.7067 169.259 21.856 168.928 21.952C168.608 22.048 168.272 22.096 167.92 22.096ZM163.792 14.784V13.52H169.2V14.784H163.792ZM174.984 22.096C174.131 22.096 173.373 21.9093 172.712 21.536C172.051 21.1627 171.528 20.6507 171.144 20C170.76 19.3387 170.568 18.592 170.568 17.76C170.568 16.9173 170.76 16.1707 171.144 15.52C171.528 14.8693 172.051 14.3627 172.712 14C173.373 13.6267 174.131 13.44 174.984 13.44C175.827 13.44 176.579 13.6267 177.24 14C177.912 14.3627 178.435 14.8693 178.808 15.52C179.192 16.16 179.384 16.9067 179.384 17.76C179.384 18.6027 179.192 19.3493 178.808 20C178.435 20.6507 177.912 21.1627 177.24 21.536C176.579 21.9093 175.827 22.096 174.984 22.096ZM174.984 20.752C175.528 20.752 176.013 20.6293 176.44 20.384C176.877 20.1387 177.219 19.792 177.464 19.344C177.709 18.8853 177.832 18.3573 177.832 17.76C177.832 17.152 177.709 16.6293 177.464 16.192C177.219 15.744 176.877 15.3973 176.44 15.152C176.013 14.9067 175.528 14.784 174.984 14.784C174.44 14.784 173.955 14.9067 173.528 15.152C173.101 15.3973 172.76 15.744 172.504 16.192C172.248 16.6293 172.12 17.152 172.12 17.76C172.12 18.3573 172.248 18.8853 172.504 19.344C172.76 19.792 173.101 20.1387 173.528 20.384C173.955 20.6293 174.44 20.752 174.984 20.752Z" fill="#0D1846"/>
<path d="M40.68 58V46.8H45.704C46.9947 46.8 47.9867 47.0613 48.68 47.584C49.3733 48.096 49.72 48.8 49.72 49.696C49.72 50.304 49.5813 50.816 49.304 51.232C49.0373 51.648 48.6747 51.968 48.216 52.192C47.7573 52.416 47.2613 52.528 46.728 52.528L47.016 52.048C47.656 52.048 48.2213 52.16 48.712 52.384C49.2027 52.608 49.592 52.9387 49.88 53.376C50.168 53.8027 50.312 54.336 50.312 54.976C50.312 55.936 49.9493 56.6827 49.224 57.216C48.5093 57.7387 47.4427 58 46.024 58H40.68ZM42.28 56.704H45.96C46.8453 56.704 47.5227 56.5547 47.992 56.256C48.4613 55.9573 48.696 55.488 48.696 54.848C48.696 54.1973 48.4613 53.7227 47.992 53.424C47.5227 53.1253 46.8453 52.976 45.96 52.976H42.136V51.68H45.56C46.3707 51.68 47 51.5307 47.448 51.232C47.896 50.9333 48.12 50.4853 48.12 49.888C48.12 49.2907 47.896 48.8427 47.448 48.544C47 48.2453 46.3707 48.096 45.56 48.096H42.28V56.704ZM56.1974 58.096C55.344 58.096 54.5867 57.9093 53.9254 57.536C53.264 57.1627 52.7414 56.6507 52.3574 56C51.9734 55.3387 51.7814 54.592 51.7814 53.76C51.7814 52.9173 51.9734 52.1707 52.3574 51.52C52.7414 50.8693 53.264 50.3627 53.9254 50C54.5867 49.6267 55.344 49.44 56.1974 49.44C57.04 49.44 57.792 49.6267 58.4534 50C59.1254 50.3627 59.648 50.8693 60.0214 51.52C60.4054 52.16 60.5974 52.9067 60.5974 53.76C60.5974 54.6027 60.4054 55.3493 60.0214 56C59.648 56.6507 59.1254 57.1627 58.4534 57.536C57.792 57.9093 57.04 58.096 56.1974 58.096ZM56.1974 56.752C56.7414 56.752 57.2267 56.6293 57.6534 56.384C58.0907 56.1387 58.432 55.792 58.6774 55.344C58.9227 54.8853 59.0454 54.3573 59.0454 53.76C59.0454 53.152 58.9227 52.6293 58.6774 52.192C58.432 51.744 58.0907 51.3973 57.6534 51.152C57.2267 50.9067 56.7414 50.784 56.1974 50.784C55.6534 50.784 55.168 50.9067 54.7414 51.152C54.3147 51.3973 53.9734 51.744 53.7174 52.192C53.4614 52.6293 53.3334 53.152 53.3334 53.76C53.3334 54.3573 53.4614 54.8853 53.7174 55.344C53.9734 55.792 54.3147 56.1387 54.7414 56.384C55.168 56.6293 55.6534 56.752 56.1974 56.752ZM62.7216 58V46.128H64.2576V58H62.7216ZM70.9664 58.096C70.0597 58.096 69.2597 57.9093 68.5664 57.536C67.8837 57.1627 67.3504 56.6507 66.9664 56C66.593 55.3493 66.4064 54.6027 66.4064 53.76C66.4064 52.9173 66.5877 52.1707 66.9504 51.52C67.3237 50.8693 67.8304 50.3627 68.4704 50C69.121 49.6267 69.8517 49.44 70.6624 49.44C71.4837 49.44 72.209 49.6213 72.8384 49.984C73.4677 50.3467 73.9584 50.8587 74.3104 51.52C74.673 52.1707 74.8544 52.9333 74.8544 53.808C74.8544 53.872 74.849 53.9467 74.8384 54.032C74.8384 54.1173 74.833 54.1973 74.8224 54.272H67.6064V53.168H74.0224L73.3984 53.552C73.409 53.008 73.297 52.5227 73.0624 52.096C72.8277 51.6693 72.5024 51.3387 72.0864 51.104C71.681 50.8587 71.2064 50.736 70.6624 50.736C70.129 50.736 69.6544 50.8587 69.2384 51.104C68.8224 51.3387 68.497 51.6747 68.2624 52.112C68.0277 52.5387 67.9104 53.0293 67.9104 53.584V53.84C67.9104 54.4053 68.0384 54.912 68.2944 55.36C68.561 55.7973 68.929 56.1387 69.3984 56.384C69.8677 56.6293 70.4064 56.752 71.0144 56.752C71.5157 56.752 71.969 56.6667 72.3744 56.496C72.7904 56.3253 73.153 56.0693 73.4624 55.728L74.3104 56.72C73.9264 57.168 73.4464 57.5093 72.8704 57.744C72.305 57.9787 71.6704 58.096 70.9664 58.096ZM79.8993 58.096C79.0459 58.096 78.3846 57.8667 77.9153 57.408C77.4459 56.9493 77.2113 56.2933 77.2113 55.44V47.664H78.7473V55.376C78.7473 55.8347 78.8593 56.1867 79.0833 56.432C79.3179 56.6773 79.6486 56.8 80.0753 56.8C80.5553 56.8 80.9553 56.6667 81.2753 56.4L81.7553 57.504C81.5206 57.7067 81.2379 57.856 80.9073 57.952C80.5873 58.048 80.2513 58.096 79.8993 58.096ZM75.7713 50.784V49.52H81.1793V50.784H75.7713ZM86.963 58.096C86.1097 58.096 85.3523 57.9093 84.691 57.536C84.0297 57.1627 83.507 56.6507 83.123 56C82.739 55.3387 82.547 54.592 82.547 53.76C82.547 52.9173 82.739 52.1707 83.123 51.52C83.507 50.8693 84.0297 50.3627 84.691 50C85.3523 49.6267 86.1097 49.44 86.963 49.44C87.8057 49.44 88.5577 49.6267 89.219 50C89.891 50.3627 90.4137 50.8693 90.787 51.52C91.171 52.16 91.363 52.9067 91.363 53.76C91.363 54.6027 91.171 55.3493 90.787 56C90.4137 56.6507 89.891 57.1627 89.219 57.536C88.5577 57.9093 87.8057 58.096 86.963 58.096ZM86.963 56.752C87.507 56.752 87.9923 56.6293 88.419 56.384C88.8563 56.1387 89.1977 55.792 89.443 55.344C89.6883 54.8853 89.811 54.3573 89.811 53.76C89.811 53.152 89.6883 52.6293 89.443 52.192C89.1977 51.744 88.8563 51.3973 88.419 51.152C87.9923 50.9067 87.507 50.784 86.963 50.784C86.419 50.784 85.9337 50.9067 85.507 51.152C85.0803 51.3973 84.739 51.744 84.483 52.192C84.227 52.6293 84.099 53.152 84.099 53.76C84.099 54.3573 84.227 54.8853 84.483 55.344C84.739 55.792 85.0803 56.1387 85.507 56.384C85.9337 56.6293 86.419 56.752 86.963 56.752Z" fill="#0D1846"/>
<path fill-rule="evenodd" clip-rule="evenodd" d="M28.8889 5.66675H5.77781C4.17447 5.66675 2.90336 6.92758 2.90336 8.50008L2.88892 25.5001C2.88892 27.0726 4.17447 28.3334 5.77781 28.3334H28.8889C30.4923 28.3334 31.7778 27.0726 31.7778 25.5001V8.50008C31.7778 6.92758 30.4923 5.66675 28.8889 5.66675ZM28.8889 25.5H5.77776V17H28.8889V25.5ZM5.77776 11.3333H28.8889V8.5H5.77776V11.3333Z" fill="#6929C4"/>
<path d="M4.43783 40.6H29.2093C29.701 40.6 30.1463 40.8025 30.4673 41.126C30.7881 41.4491 30.9883 41.8966 30.9883 42.3893V61.6108C30.9883 62.1031 30.7885 62.5507 30.4673 62.874C30.1466 63.1972 29.701 63.4 29.2093 63.4H4.43783C3.94624 63.4 3.50054 63.1976 3.17958 62.8738C2.85892 62.5507 2.65884 62.1033 2.65884 61.6108V42.3893C2.65884 41.8969 2.85854 41.4493 3.17974 41.126L4.43783 40.6ZM4.43783 40.6C3.94616 40.6 3.50069 40.8028 3.17991 41.1258L4.43783 40.6ZM4.43783 42.2667H29.2093C29.2387 42.2667 29.2677 42.2785 29.2912 42.3022C29.3148 42.326 29.3277 42.3566 29.3277 42.389V61.6105C29.3277 61.6429 29.3148 61.6736 29.2912 61.6973C29.2677 61.721 29.2387 61.7328 29.2093 61.7328H4.43783C4.40844 61.7328 4.37938 61.721 4.35585 61.6973C4.33227 61.6736 4.31936 61.6429 4.31936 61.6105V42.389C4.31936 42.3566 4.33227 42.326 4.35584 42.3022C4.37938 42.2785 4.40844 42.2667 4.43783 42.2667Z" fill="#6929C4" stroke="#6929C4" stroke-width="0.8"/>
<path fill-rule="evenodd" clip-rule="evenodd" d="M5.09814 44H6.19142V59.8068H5.09814V44Z" fill="#6929C4"/>
<path fill-rule="evenodd" clip-rule="evenodd" d="M7.24146 44H9.07996V59.8068H7.24146V44Z" fill="#6929C4"/>
<path fill-rule="evenodd" clip-rule="evenodd" d="M10.1299 44H10.7324V59.8068H10.1299V44Z" fill="#6929C4"/>
<path fill-rule="evenodd" clip-rule="evenodd" d="M11.7825 44H13.2297V59.8068H11.7825V44Z" fill="#6929C4"/>
<path fill-rule="evenodd" clip-rule="evenodd" d="M22.4114 44H21.3181V59.8068H22.4114V44Z" fill="#6929C4"/>
<path fill-rule="evenodd" clip-rule="evenodd" d="M20.2682 44H18.4297V59.8068H20.2682V44Z" fill="#6929C4"/>
<path fill-rule="evenodd" clip-rule="evenodd" d="M17.3794 44H16.7769V59.8068H17.3794V44Z" fill="#6929C4"/>
<path fill-rule="evenodd" clip-rule="evenodd" d="M15.727 44H14.2798V59.8068H15.727V44Z" fill="#6929C4"/>
<path fill-rule="evenodd" clip-rule="evenodd" d="M23.4614 44H24.008V59.8068H23.4614V44Z" fill="#6929C4"/>
<path fill-rule="evenodd" clip-rule="evenodd" d="M25.0581 44H26.8966V59.8068H25.0581V44Z" fill="#6929C4"/>
<path fill-rule="evenodd" clip-rule="evenodd" d="M27.9465 44H28.5491V59.8068H27.9465V44Z" fill="#6929C4"/>
</svg>
