<?xml version="1.0" encoding="utf-8"?>
<!-- Generator: Adobe Illustrator 16.0.0, SVG Export Plug-In . SVG Version: 6.00 Build 0)  -->
<!DOCTYPE svg PUBLIC "-//W3C//DTD SVG 1.1//EN" "http://www.w3.org/Graphics/SVG/1.1/DTD/svg11.dtd">
<svg version="1.1" id="Layer_1" xmlns="http://www.w3.org/2000/svg" xmlns:xlink="http://www.w3.org/1999/xlink" x="0px" y="0px"
	 width="68px" height="87px" viewBox="0 0 68 87" enable-background="new 0 0 68 87" xml:space="preserve">
<path fill="none" stroke="#0E79C7" d="M37.877,49.125v-0.5c0,0,3,23.5-8.5,23.5s-10.25-11.5-10.25-11.5"/>
<circle fill="none" stroke="#0E79C7" cx="19.087" cy="54.775" r="5.875"/>
<circle fill="none" stroke="#0E79C7" cx="30.752" cy="18.75" r="3.875"/>
<circle fill="none" stroke="#0E79C7" cx="44.752" cy="18.75" r="3.875"/>
<path fill="none" stroke="#0E79C7" d="M26.98,19.15h-2.75V31.9c0,0,0.25,14.25,14.25,14.25c14,0,13.75-13.5,13.75-13.5v-13.5h-3.5"
	/>
<circle fill="#E5F2FA" stroke="#0E79C7" cx="38.23" cy="46.15" r="2.75"/>
<path fill="none" stroke="#0E79C7" d="M-145.594-56.837c0,6.627-0.373,12-7,12h-37.75c-6.627,0-7-5.373-7-12v-14
	c0-6.627,0.373-12,7-12h37.75c6.627,0,7,5.373,7,12V-56.837z"/>
<path fill="none" stroke="#0E79C7" d="M-180.844-83.087v-4.125c0,0,0.25-1.938,1.5-1.938s7.875,0,7.875,0h7.125
	c0,0,1.125-0.188,1.875,0.875v5.188"/>
<polygon fill="none" stroke="#0E79C7" points="-171.469,-73.837 -175.156,-73.837 -175.156,-67.087 -180.906,-67.087 
	-180.906,-59.587 -174.531,-59.587 -174.531,-52.712 -167.782,-52.712 -167.782,-59.462 -161.407,-59.462 -161.407,-67.212 
	-167.907,-67.212 -167.907,-73.837 "/>
<rect x="-95.944" y="-59.5" fill="none" stroke="#0E79C7" width="9.666" height="21.167"/>
<rect x="-81.667" y="-63.667" fill="none" stroke="#0E79C7" width="22.833" height="11.333"/>
<rect x="-81.667" y="-70.333" fill="none" stroke="#0E79C7" width="22.833" height="6.667"/>
<line fill="none" stroke="#0E79C7" x1="-91.111" y1="-59.167" x2="-91.111" y2="-71.333"/>
<circle fill="none" stroke="#0E79C7" cx="-91.111" cy="-76.832" r="5.499"/>
<line fill="none" stroke="#0E79C7" x1="-75.501" y1="-73.331" x2="-75.501" y2="-68.164"/>
<line fill="none" stroke="#0E79C7" x1="-64.001" y1="-72.917" x2="-64.001" y2="-67.75"/>
<rect x="-55.944" y="-59.5" fill="none" stroke="#0E79C7" width="9.666" height="21.167"/>
<path fill="none" stroke="#0E79C7" d="M-56.61-77.832"/>
<path fill="none" stroke="#0E79C7" d="M-56.61-76.832c0-3.037,2.462-5.499,5.499-5.499c3.037,0,5.499,2.462,5.499,5.499
	s-2.462,5.499-5.499,5.499v12.167"/>
<path fill="none" stroke="#0E79C7" d="M49-83.625l-14,6.75L38.125-66.5l5.75-3.75L38.5-51c0,0,5.125,0.125,8,2.75s2.5,8.5,2.5,8.5
	h14.375c0,0-0.125-5,2.875-7.5s8-2.75,8-2.75l-4.375-19l5.875,2.375L77.125-77L64-83.625c0,0-2.625,5.5-4.25,6S54.375-77,53-77.875
	S49-83.625,49-83.625z"/>
<path fill="none" stroke="#0E79C7" d="M52.809-50c-1.229-1.688-1.317-3.522-1.414-5.263c-0.117-2.1-0.363-4.109-1.397-5.974
	c-0.216-0.39-0.347-0.839-0.451-1.277c-0.993-4.194,0.315-5.664,4.517-4.932c1.836,0.32,3.597,0.012,5.395-0.172
	c2.764-0.283,3.958,2.038,3.54,4.578c-0.267,1.613-1.235,3.135-1.599,4.799c-0.431,1.963-0.605,3.972-0.908,5.957
	c-0.111,0.732-0.105,1.541-0.838,2.184c-0.721-0.865-0.529-1.858-0.567-2.781c-0.052-1.295-0.021-2.609-0.694-3.773
	c-0.5-0.864-1.166-1.635-2.287-1.512c-1.054,0.116-1.776,0.801-2.09,1.795c-0.426,1.352-0.885,2.703-0.834,4.163
	C53.201-51.534,53.296-50.815,52.809-50z"/>
<path fill="none" stroke="#0E79C7" d="M175.52-42.715c-2.847-3.913-3.053-8.162-3.274-12.196c-0.271-4.866-0.841-9.522-3.237-13.844
	c-0.501-0.903-0.805-1.945-1.044-2.959c-2.301-9.72,0.731-13.126,10.466-11.43c4.256,0.741,8.334,0.027,12.502-0.399
	c2.438-0.25,5.571-0.468,7.039,1.913c1.506,2.443,1.393,7.703,0.689,10.307c-0.973,3.598-2.705,6.792-3.443,10.543
	c-0.832,4.225-1.246,8.518-1.894,12.772c-0.259,1.695-0.245,3.57-1.939,5.061c-1.673-2.004-1.229-4.305-1.315-6.445
	c-0.12-3.001-0.047-6.046-1.608-8.744c-1.16-2.003-2.703-3.788-5.299-3.503c-2.442,0.268-4.118,1.855-4.845,4.161
	c-0.987,3.133-2.049,6.263-1.936,9.646C176.432-46.27,176.65-44.604,175.52-42.715z"/>
<path fill="none" stroke="#0E79C7" d="M304.436-51.166c-1.637-3.422-1.189-6.727-0.787-9.869c0.484-3.79,0.709-7.46-0.522-11.134
	c-0.259-0.769-0.343-1.615-0.384-2.43c-0.389-7.821,2.434-10.016,9.697-7.321c3.174,1.177,6.42,1.208,9.694,1.474
	c4.899,0.396,5.987,1.85,5.11,6.581c-0.68,3.693-2.887,6.123-4.33,9.4c-1.648,3.741-2.656,7.884-3.999,11.755
	c-0.44,1.271-0.698,2.718-2.218,3.625c-1.004-1.783-0.334-3.494-0.094-5.156c0.332-2.331,0.824-4.668,0.006-6.97
	c-0.61-1.71-1.545-3.306-3.588-3.456c-1.922-0.142-3.438,0.844-4.328,2.517c-1.207,2.275-2.473,4.537-2.865,7.161
	C305.646-53.776,305.578-52.461,304.436-51.166z"/>
<path fill="none" stroke="#0E79C7" d="M289-39.75v-20.5h6.5c0,0,5,15.875,15.875,15.875S327.52-60.25,327.52-60.25h5.98v20.5H289z"
	/>
<g>
	<path fill="none" stroke="#0E79C7" d="M475.93-51.93l14-26.25c0,0,2.5-2.75,5.5-1.5s1.5,6,1.5,6l-10.314,21.75H475.93z"/>
	<path fill="none" stroke="#0E79C7" d="M478.93-51.93h6.25l-4.5,10.25c0,0-3.75,6.25-10,4.25L478.93-51.93z"/>
</g>
<path fill="none" stroke="#0E79C7" d="M590.443-41.2c-2.848-3.913-3.053-8.162-3.275-12.196c-0.271-4.866-0.842-9.522-3.236-13.844
	c-0.502-0.903-0.805-1.945-1.045-2.959c-2.301-9.72,0.73-13.126,10.467-11.43c4.254,0.741,8.334,0.027,12.5-0.399
	c2.438-0.25,5.572-0.468,7.041,1.913c1.506,2.443,1.393,7.703,0.688,10.307c-0.973,3.598-2.703,6.792-3.441,10.543
	c-0.832,4.225-1.246,8.518-1.895,12.772c-0.258,1.695-0.244,3.57-1.939,5.061c-1.674-2.004-1.229-4.305-1.316-6.445
	c-0.119-3.001-0.045-6.046-1.605-8.744c-1.16-2.003-2.703-3.788-5.301-3.503c-2.441,0.268-4.117,1.855-4.844,4.161
	c-0.986,3.133-2.051,6.263-1.936,9.646C591.355-44.755,591.574-43.09,590.443-41.2z"/>
<path fill="none" stroke="#0E79C7" d="M590.514-54.903c-2.012-1.926-2.156-4.017-2.316-6.002c-0.188-2.395-0.592-4.686-2.285-6.813
	c-0.352-0.445-0.566-0.957-0.736-1.456c-1.625-4.784,0.518-6.46,7.393-5.625c3.004,0.365,10.002,0.013,12.943-0.196
	c1.721-0.123,3.936-0.23,4.973,0.941c1.064,1.202,0.984,3.791,0.486,5.073c-0.688,1.771-1.91,3.343-2.432,5.189
	c-0.59,2.079-0.881,4.192-1.34,6.285c-0.182,0.834-0.172,1.757-1.367,2.491c-1.184-0.986-0.869-2.119-0.932-3.172
	c-0.084-1.477-0.031-2.976-1.135-4.304c-0.818-0.985-1.908-1.864-3.742-1.723c-1.727,0.132-7.021-0.087-7.535,1.047
	c-0.697,1.542-1.447,4.083-1.367,5.748C591.156-56.652,591.313-55.833,590.514-54.903z"/>
<g>
	<rect x="668.09" y="-81.452" fill="none" stroke="#0E79C7" width="44.5" height="36.5"/>
	<line fill="none" stroke="#0E79C7" x1="677.764" y1="-70.79" x2="700.43" y2="-70.79"/>
	<line fill="none" stroke="#0E79C7" x1="674.098" y1="-65.456" x2="706.098" y2="-65.456"/>
	<line fill="none" stroke="#0E79C7" x1="675.764" y1="-60.79" x2="703.098" y2="-60.79"/>
	<line fill="none" stroke="#0E79C7" x1="689.43" y1="-74.456" x2="690.34" y2="-50.123"/>
	<line fill="none" stroke="#0E79C7" x1="679.43" y1="-54.456" x2="685.764" y2="-54.456"/>
	<line fill="none" stroke="#0E79C7" x1="694.098" y1="-54.456" x2="701.098" y2="-54.456"/>
</g>
</svg>
