<svg width="37" height="35" viewBox="0 0 37 35" fill="none" xmlns="http://www.w3.org/2000/svg">
<path d="M0.639441 17.6374V17.6375L0.639441 22.024L0.639441 22.0241C0.640958 23.2334 1.16447 24.3909 2.09196 25.2432C3.01917 26.0953 4.27463 26.5733 5.58257 26.5747H5.58267H7.93718C8.10942 26.5747 8.27614 26.5119 8.4003 26.3978C8.52474 26.2834 8.59644 26.1264 8.59644 25.9607V13.7007C8.59644 13.535 8.52474 13.378 8.4003 13.2637C8.27614 13.1496 8.10942 13.0868 7.93718 13.0868H6.3007C6.3969 10.1623 7.72108 7.38199 10.0012 5.33062C12.3082 3.2551 15.4098 2.09152 18.6415 2.09152C21.8732 2.09152 24.9748 3.2551 27.2818 5.33062C29.5619 7.38199 30.8861 10.1623 30.9823 13.0868H29.343C29.1708 13.0868 29.0041 13.1496 28.8799 13.2637C28.7555 13.378 28.6838 13.535 28.6838 13.7007V25.9581C28.6838 26.1238 28.7555 26.2808 28.8799 26.3952C29.0041 26.5093 29.1708 26.5721 29.343 26.5721H30.9963V27.1632C30.9949 28.3384 30.4863 29.467 29.579 30.3007C28.6714 31.1348 27.4392 31.6052 26.1523 31.6066H23.5548C23.5959 31.2508 23.5612 30.8907 23.4522 30.5467C23.3314 30.1652 23.1223 29.813 22.8399 29.514C22.5576 29.2151 22.2087 28.9764 21.8175 28.814C21.4264 28.6515 21.002 28.569 20.5734 28.5717C20.5733 28.5717 20.5732 28.5717 20.5731 28.5717L16.7106 28.5717C16.3107 28.5605 15.9122 28.6231 15.5387 28.756C15.1647 28.8891 14.8231 29.09 14.5343 29.3473C14.2455 29.6045 14.0154 29.913 13.858 30.2545C13.7007 30.5961 13.6194 30.9637 13.6194 31.3352C13.6194 31.7068 13.7007 32.0743 13.858 32.4159C14.0154 32.7575 14.2455 33.0659 14.5343 33.3232C14.8231 33.5805 15.1647 33.7814 15.5387 33.9145C15.9122 34.0474 16.3108 34.11 16.7107 34.0987H20.5626H20.5627C21.0716 34.098 21.5723 33.9778 22.0173 33.7492C22.4458 33.529 22.8095 33.215 23.076 32.8344H26.1412H26.1414C27.7724 32.8324 29.3375 32.2361 30.4932 31.1741C31.6492 30.1118 32.3014 28.6697 32.3037 27.1635V27.1633V26.5388C33.4794 26.4021 34.5652 25.8811 35.361 25.0676C36.1773 24.2332 36.631 23.1494 36.6324 22.0241V22.024V17.6375V17.6373C36.6307 16.5107 36.1759 15.426 35.3578 14.5914C34.5598 13.7772 33.4711 13.2568 32.293 13.1223C32.1962 9.86396 30.7262 6.76793 28.194 4.48774C25.6393 2.18726 22.2067 0.9 18.6331 0.9C15.0595 0.9 11.6269 2.18726 9.07219 4.48774C6.53997 6.76795 5.07003 9.86401 4.97325 13.1224C3.79611 13.2581 2.70875 13.7789 1.91186 14.593C1.09497 15.4275 0.640927 16.5116 0.639441 17.6374ZM20.5662 32.8735L20.5662 32.8734H20.5626H16.7092V32.8733L16.7056 32.8735C16.4782 32.8818 16.2515 32.8477 16.0392 32.7736C15.8268 32.6995 15.6335 32.5869 15.4705 32.443C15.3076 32.2991 15.1786 32.127 15.0906 31.9371C15.0026 31.7473 14.9574 31.5435 14.9574 31.3378C14.9574 31.1321 15.0026 30.9283 15.0906 30.7385C15.1786 30.5486 15.3076 30.3765 15.4705 30.2326C15.6335 30.0887 15.8268 29.9761 16.0392 29.902C16.2515 29.8279 16.4782 29.7938 16.7056 29.8021L16.7056 29.8022H16.7092H20.5626V29.8023L20.5662 29.8021C20.7936 29.7938 21.0203 29.8279 21.2326 29.902C21.445 29.9761 21.6383 30.0887 21.8013 30.2326C21.9642 30.3765 22.0933 30.5486 22.1812 30.7385C22.2692 30.9283 22.3144 31.1321 22.3144 31.3378C22.3144 31.5435 22.2692 31.7473 22.1812 31.9371C22.0933 32.127 21.9642 32.2991 21.8013 32.443C21.6383 32.5869 21.445 32.6995 21.2326 32.7736C21.0203 32.8477 20.7936 32.8818 20.5662 32.8735ZM7.27791 25.3468H5.58274C4.61902 25.3461 3.69649 24.9939 3.01739 24.3699C2.33858 23.7461 1.95869 22.9021 1.95797 22.0239V17.6376C1.95869 16.7593 2.33858 15.9154 3.01739 15.2916C3.69649 14.6675 4.61902 14.3153 5.58274 14.3147H7.27791V25.3468ZM35.3138 22.0239C35.3131 22.9021 34.9332 23.7461 34.2544 24.3699C33.5753 24.9939 32.6528 25.3461 31.6891 25.3468H29.9939V14.3147H31.6891C32.6528 14.3153 33.5753 14.6675 34.2544 15.2916C34.9332 15.9154 35.3131 16.7593 35.3138 17.6376V22.0239Z" fill="#00335B" stroke="white" stroke-width="0.2"/>
</svg>
