<?xml version="1.0" encoding="utf-8"?>
<!-- Generator: Adobe Illustrator 16.0.0, SVG Export Plug-In . SVG Version: 6.00 Build 0)  -->
<!DOCTYPE svg PUBLIC "-//W3C//DTD SVG 1.1//EN" "http://www.w3.org/Graphics/SVG/1.1/DTD/svg11.dtd">
<svg version="1.1" id="Layer_1" xmlns="http://www.w3.org/2000/svg" xmlns:xlink="http://www.w3.org/1999/xlink" x="0px" y="0px"
	 width="23px" height="20px" viewBox="0 0 23 20" enable-background="new 0 0 23 20" xml:space="preserve">
<path fill-rule="evenodd" clip-rule="evenodd" fill="#FFFFFF" d="M3.505,7.447c0.045-0.696,0.209-1.4,0.505-2.071
	c0.61-1.383,1.591-2.442,2.869-3.228c1.677-1.032,3.514-1.445,5.468-1.298c2.08,0.156,3.926,0.893,5.44,2.358
	c1.055,1.02,1.729,2.252,1.957,3.713c0.023,0.153,0.044,0.309,0.049,0.464c0.004,0.099,0.046,0.125,0.134,0.14
	c0.593,0.104,1.126,0.341,1.575,0.748c0.544,0.492,0.85,1.099,0.851,1.843c0.001,0.798,0.011,1.596-0.002,2.393
	c-0.016,0.93-0.486,1.604-1.243,2.099c-0.359,0.235-0.757,0.381-1.181,0.451c-0.078,0.014-0.114,0.035-0.115,0.122
	c-0.023,1.569-0.888,2.525-2.272,3.091c-0.639,0.26-1.313,0.284-1.992,0.269c-0.377-0.01-0.755-0.006-1.132-0.002
	c-0.05,0-0.112,0.026-0.146,0.062c-0.388,0.411-0.872,0.61-1.427,0.619c-0.816,0.014-1.633,0.015-2.45,0
	c-0.566-0.01-1.062-0.22-1.439-0.651c-0.65-0.744-0.458-1.813,0.411-2.347c0.334-0.205,0.699-0.306,1.089-0.307
	c0.792-0.004,1.585-0.019,2.378,0.003c0.782,0.022,1.407,0.341,1.743,1.087c0.076,0.168,0.097,0.361,0.149,0.565
	c-0.018-0.013-0.01-0.003-0.002-0.003c0.678-0.012,1.361,0.081,2.031-0.071c0.766-0.174,1.382-0.571,1.77-1.273
	c0.187-0.337,0.256-0.703,0.232-1.105c-0.266,0-0.523-0.001-0.781,0c-0.178,0-0.352-0.038-0.449-0.191
	c-0.067-0.104-0.113-0.242-0.114-0.365c-0.006-2.105-0.004-4.21-0.004-6.315c0-0.085-0.002-0.17,0-0.255
	c0.004-0.3,0.216-0.514,0.518-0.518c0.26-0.004,0.519-0.002,0.778-0.004c0.009,0,0.017-0.006,0.064-0.026
	c-0.06-0.317-0.101-0.648-0.187-0.967c-0.366-1.364-1.171-2.426-2.3-3.25c-1.16-0.846-2.47-1.302-3.896-1.422
	c-1.769-0.148-3.429,0.203-4.94,1.149c-1.331,0.833-2.28,1.977-2.702,3.514C4.653,6.785,4.613,7.118,4.545,7.47
	c0.287,0,0.536,0,0.784,0c0.388,0.001,0.581,0.195,0.581,0.583c0,2.157-0.001,4.314-0.001,6.47c0,0.4-0.189,0.592-0.586,0.593
	c-0.453,0-0.906,0.007-1.359-0.002c-0.842-0.016-1.595-0.277-2.214-0.861c-0.51-0.481-0.791-1.072-0.792-1.783
	c-0.001-0.75,0.004-1.501-0.001-2.251C0.949,9.133,1.471,8.367,2.4,7.871C2.736,7.691,3.116,7.594,3.505,7.447z M4.845,8.434
	c-0.323,0-0.639-0.022-0.952,0.007C3.634,8.464,3.365,8.51,3.126,8.609C2.468,8.884,2.034,9.355,2.02,10.105
	c-0.016,0.788-0.005,1.576-0.003,2.364c0.001,0.462,0.191,0.84,0.528,1.146c0.667,0.607,1.483,0.558,2.3,0.529
	C4.845,12.239,4.845,10.344,4.845,8.434z M18.475,8.429c0,1.922,0,3.82,0,5.72c0.328,0,0.646,0.022,0.959-0.007
	c0.259-0.024,0.523-0.081,0.766-0.175c0.606-0.233,1.13-0.801,1.101-1.632c-0.025-0.73-0.005-1.463-0.007-2.194
	c0-0.103-0.003-0.209-0.025-0.309c-0.161-0.711-0.648-1.103-1.31-1.311C19.475,8.371,18.976,8.45,18.475,8.429z M11.659,16.879
	c-0.396,0-0.792-0.003-1.188,0c-0.229,0.002-0.435,0.073-0.61,0.225c-0.285,0.249-0.295,0.646-0.023,0.909
	c0.175,0.169,0.39,0.246,0.627,0.247c0.792,0.004,1.584,0.002,2.376,0.001c0.225-0.001,0.426-0.075,0.598-0.22
	c0.281-0.236,0.305-0.622,0.053-0.889c-0.174-0.185-0.396-0.27-0.646-0.272C12.451,16.875,12.055,16.879,11.659,16.879z"/>
</svg>
