<svg width="30" height="33" viewBox="0 0 30 33" fill="none" xmlns="http://www.w3.org/2000/svg">
<path d="M25.5051 4.32362H22.2578V2.98803C22.2578 2.55591 21.7451 2.35952 21.2751 2.35952H18.7542C18.156 0.788201 16.6605 0.0025435 14.9514 0.0025435C13.2611 -0.0558789 11.7236 0.897 11.1486 2.35952H8.67039C8.20037 2.35952 7.73036 2.55591 7.73036 2.98803V4.32362H4.48297C2.55859 4.34249 0.984252 5.73816 0.893799 7.5055V30.0145C0.893799 31.743 2.60292 33 4.48297 33H25.5051C27.3852 33 29.0943 31.743 29.0943 30.0145V7.50557C29.0038 5.73816 27.4295 4.34249 25.5051 4.32362ZM9.4394 3.93083H11.7895C12.1997 3.88481 12.5292 3.59789 12.6013 3.22375C12.8544 2.21064 13.8211 1.4834 14.9514 1.45604C16.0712 1.48724 17.0234 2.21673 17.2587 3.22375C17.3353 3.61082 17.6866 3.90143 18.1132 3.93083H20.5488V7.07346H9.4394V3.93083ZM27.3852 30.0146C27.3852 30.8788 26.4451 31.4288 25.5051 31.4288H4.48297C3.54294 31.4288 2.60292 30.8788 2.60292 30.0146V7.50557C2.6901 6.606 3.50074 5.91148 4.48297 5.89501H7.73028V7.89844C7.77543 8.3386 8.19007 8.66786 8.67031 8.64485H21.275C21.7641 8.66944 22.1917 8.34469 22.2577 7.89844V5.89494H25.505C26.4872 5.91148 27.2979 6.60593 27.3851 7.5055V30.0146H27.3852Z" fill="#333333"/>
<path d="M11.704 17.562C11.3835 17.2514 10.8514 17.2338 10.5076 17.5227L7.77297 19.9189L6.61933 18.819C6.29882 18.5084 5.76673 18.4909 5.42291 18.7797C5.09193 19.0985 5.09193 19.6001 5.42291 19.9189L7.17472 21.5688C7.32635 21.7249 7.54537 21.8112 7.77289 21.8046C7.99829 21.8016 8.2133 21.7169 8.37106 21.5688L11.7038 18.6619C12.0342 18.3833 12.0563 17.9111 11.7532 17.6074C11.7376 17.5915 11.7212 17.5764 11.704 17.562Z" fill="#333333"/>
<path d="M23.9669 19.2511H14.1395C13.6675 19.2511 13.285 19.6028 13.285 20.0368C13.285 20.4707 13.6675 20.8224 14.1395 20.8224H23.9669C24.4389 20.8224 24.8215 20.4707 24.8215 20.0368C24.8215 19.6028 24.4389 19.2511 23.9669 19.2511Z" fill="#333333"/>
<path d="M11.704 11.2767C11.3835 10.9661 10.8514 10.9486 10.5076 11.2375L7.77297 13.6337L6.61933 12.5337C6.29882 12.2231 5.76673 12.2056 5.42291 12.4945C5.09193 12.8133 5.09193 13.3149 5.42291 13.6337L7.17472 15.2836C7.32635 15.4397 7.54537 15.526 7.77289 15.5193C7.99829 15.5164 8.2133 15.4316 8.37106 15.2836L11.7038 12.3767C12.0342 12.098 12.0563 11.6258 11.7532 11.3221C11.7376 11.3063 11.7212 11.2912 11.704 11.2767Z" fill="#333333"/>
<path d="M23.9669 12.9659H14.1395C13.6675 12.9659 13.285 13.3176 13.285 13.7515C13.285 14.1854 13.6675 14.5372 14.1395 14.5372H23.9669C24.4389 14.5372 24.8215 14.1854 24.8215 13.7515C24.8215 13.3176 24.4389 12.9659 23.9669 12.9659Z" fill="#333333"/>
<path d="M11.704 23.8472C11.3835 23.5365 10.8514 23.5191 10.5076 23.8079L7.77297 26.2041L6.61933 25.1042C6.29882 24.7936 5.76673 24.7761 5.42291 25.0649C5.09193 25.3837 5.09193 25.8853 5.42291 26.2041L7.17472 27.854C7.32635 28.0101 7.54537 28.0964 7.77289 28.0897C7.99829 28.0868 8.2133 28.0021 8.37106 27.854L11.7038 24.9471C12.0342 24.6685 12.0563 24.1963 11.7532 23.8926C11.7376 23.8768 11.7212 23.8617 11.704 23.8472Z" fill="#333333"/>
<path d="M23.9669 25.5364H14.1395C13.6675 25.5364 13.285 25.8881 13.285 26.322C13.285 26.7559 13.6675 27.1077 14.1395 27.1077H23.9669C24.4389 27.1077 24.8215 26.7559 24.8215 26.322C24.8215 25.8881 24.4389 25.5364 23.9669 25.5364Z" fill="#333333"/>
</svg>
