<svg width="27" height="34" viewBox="0 0 27 34" fill="none" xmlns="http://www.w3.org/2000/svg">
<path d="M13.5143 0C6.15883 0 0.175049 5.68603 0.175049 12.6729C0.175049 23.1373 12.6262 33.1854 13.1564 33.6081C13.2555 33.6881 13.3811 33.7325 13.5113 33.7332C13.6415 33.734 13.7677 33.6912 13.8678 33.6123C14.3981 33.197 26.8536 23.3218 26.8536 12.6729C26.8536 5.68603 20.8698 0 13.5143 0ZM13.5166 32.5076C11.4701 30.7735 1.28666 21.6931 1.28666 12.6729C1.28666 6.26581 6.77244 1.05414 13.5143 1.05414C20.2562 1.05414 25.742 6.26581 25.742 12.6729C25.742 21.846 15.5686 30.7967 13.5166 32.5076Z" fill="#333333"/>
<path d="M13.514 6.32471C9.83564 6.32471 6.8443 9.16148 6.8443 12.6497C6.8443 16.138 9.83564 18.9747 13.514 18.9747C17.1923 18.9747 20.1836 16.138 20.1836 12.6497C20.1836 9.16148 17.1923 6.32471 13.514 6.32471ZM13.514 17.9206C10.4492 17.9206 7.95591 15.5561 7.95591 12.6497C7.95591 9.74338 10.4492 7.37888 13.514 7.37888C16.5787 7.37888 19.072 9.74338 19.072 12.6497C19.072 15.5561 16.5787 17.9206 13.514 17.9206Z" fill="#333333"/>
</svg>
