<svg width="38" height="38" viewBox="0 0 38 38" fill="none" xmlns="http://www.w3.org/2000/svg">
	<g clip-path="url(#clip0_161_3)">
		<path d="M16.472 15.4818L16.7325 15.4436L16.8484 15.2071L19.0023 10.8112C19.2059 10.396 19.7928 10.3952 19.9981 10.8118C19.9982 10.8118 19.9982 10.8119 19.9982 10.8119L22.1518 15.2071L22.2676 15.4436L22.5282 15.4818L27.3474 16.189L27.3478 16.1891C27.7978 16.2548 27.9888 16.8219 27.6539 17.1501L27.6538 17.1503L24.1671 20.5702L23.9804 20.7534L24.0244 21.0113L24.849 25.842C24.849 25.842 24.849 25.8421 24.849 25.8421C24.928 26.3072 24.4433 26.6459 24.0453 26.4352L24.0452 26.4352L19.7339 24.1541L19.5001 24.0304L19.2662 24.1541L14.955 26.4352L14.9534 26.436C14.5588 26.6466 14.0717 26.3103 14.1511 25.8421C14.1511 25.8421 14.1512 25.842 14.1512 25.842L14.9758 21.0113L15.0198 20.7534L14.833 20.5702L11.3464 17.1503L11.3462 17.1501C11.0113 16.8219 11.2023 16.2548 11.6523 16.1891L11.6527 16.189L16.472 15.4818Z" stroke="#4D4D4D">
		</path>
	</g>
	<circle cx="19" cy="19" r="18.5" stroke="#4D4D4D">
	</circle>
	<defs>
		<clipPath id="clip0_161_3">
			<rect width="19" height="17" fill="white" transform="translate(10 10)">
			</rect>
		</clipPath>
	</defs>
</svg>
