<svg width="65" height="90" viewBox="0 0 65 90" fill="none" xmlns="http://www.w3.org/2000/svg">
<path d="M32.308 0.000676655C14.4616 0.000676655 1.36664e-06 13.7376 1.36664e-06 30.6858C-0.00198179 37.1984 2.15443 43.5279 6.13158 48.6861C6.24793 49.3483 6.46874 49.9873 6.7854 50.5807L25.9671 86.3073C26.8186 87.8087 28.1759 88.9593 29.7968 89.5539C31.4178 90.1487 33.1976 90.1487 34.8185 89.5539C36.4395 88.9592 37.7968 87.8087 38.6483 86.3073L57.83 50.5147C58.1467 49.9213 58.3675 49.2816 58.4838 48.6195C62.461 43.4616 64.6174 37.1321 64.6154 30.6191C64.6154 13.7366 50.1533 0 32.3074 0L32.308 0.000676655Z" fill="#0079C8"/>
<path d="M39.6257 25.2509C39.5104 25.0289 39.4346 24.8826 39.3142 24.7667C39.169 24.6261 38.963 24.5642 38.7628 24.5946C38.5631 24.6267 38.3887 24.7529 38.294 24.9342L36.6371 28.4748L35.3106 13.834C35.2716 13.4393 34.9554 13.1329 34.5595 13.1048C34.1654 13.0813 33.8074 13.3406 33.7144 13.7233L30.8704 25.9773L29.9076 24.2016C29.8216 24.0426 29.6718 23.9267 29.4968 23.8837C29.3224 23.8395 29.1359 23.8717 28.9845 23.9709C28.8433 24.0644 28.7705 24.1821 28.6592 24.3616C28.3075 24.9291 27.3751 26.4363 25.1886 26.4363H18.4614V27.7261H25.1886C26.8737 27.7261 28.2484 27.0588 29.2754 25.7421L30.5347 28.0657C30.6609 28.2981 30.9237 28.4312 31.1848 28.3979C31.447 28.3641 31.6656 28.1684 31.7287 27.9108L34.3151 16.592L35.5286 30.3665C35.5602 30.7491 35.8866 31.0492 36.271 31.0492C36.5562 31.0492 36.8121 30.8903 36.9389 30.6344L38.8988 26.5683C39.4192 27.3365 40.0388 27.7261 40.7422 27.7261H42.857V26.4363H40.7422C40.2419 26.4363 39.8414 25.6663 39.6257 25.2509Z" fill="white"/>
<path d="M34.8656 43.0299L34.8665 43.023C34.9092 42.6671 34.6916 42.4334 34.4153 42.4334C34.1315 42.4334 33.8694 42.6568 33.8256 43.023L33.8247 43.0299C33.782 43.3859 33.9926 43.6194 34.2725 43.6194C34.549 43.6194 34.8233 43.3822 34.8656 43.0299ZM33.4083 43.0299L33.409 43.023C33.4825 42.4127 33.9301 42.0673 34.3602 42.0673C34.6569 42.0673 34.8267 42.2173 34.9355 42.3918L34.9699 42.1057H35.3829L35.1614 43.9473H34.7484L34.7855 43.6403C34.6293 43.8322 34.4231 43.9856 34.1297 43.9856C33.7064 43.9856 33.3348 43.6403 33.4083 43.0299ZM32.7388 43.0299L32.7397 43.023C32.7824 42.6671 32.5751 42.4334 32.2948 42.4334C32.0151 42.4334 31.7411 42.6708 31.6986 43.023L31.6977 43.0299C31.6554 43.3822 31.8726 43.6194 32.1525 43.6194C32.4358 43.6194 32.6952 43.3927 32.7388 43.0299ZM31.4061 42.1057H31.8191L31.7822 42.4127C31.9383 42.2207 32.1444 42.0673 32.438 42.0673C32.8613 42.0673 33.2332 42.409 33.1594 43.023L33.1585 43.0299C33.0853 43.6403 32.6343 43.9856 32.2076 43.9856C31.9072 43.9856 31.7379 43.8322 31.6321 43.6614L31.5307 44.5055H31.1177L31.4061 42.1057ZM29.2131 43.2775L29.354 42.1057H29.767L29.6413 43.1521C29.6067 43.438 29.7277 43.5987 29.9734 43.5987C30.2126 43.5987 30.3996 43.4311 30.434 43.145L30.559 42.1057H30.9754L30.7542 43.9473H30.3376L30.372 43.6614C30.2351 43.8357 30.0498 43.9856 29.7699 43.9856C29.3637 43.9856 29.1616 43.7066 29.2131 43.2775ZM28.4689 42.1962C28.4919 42.0044 28.3561 41.8859 28.0865 41.8859H27.4822L27.4044 42.5346H27.9777C28.2475 42.5346 28.4413 42.4265 28.4682 42.2031L28.4689 42.1962ZM28.0263 42.8974H27.3606L27.2803 43.5673H27.9766C28.2634 43.5673 28.4514 43.452 28.4777 43.2322L28.4786 43.2253C28.5033 43.0196 28.3574 42.8974 28.0263 42.8974ZM27.1151 41.5055H28.187C28.4602 41.5055 28.6659 41.5824 28.7855 41.722C28.8783 41.8299 28.917 41.9626 28.8974 42.1264L28.8965 42.1335C28.8612 42.4265 28.6784 42.5835 28.4898 42.6777C28.7578 42.7753 28.9327 42.9392 28.8929 43.2706L28.892 43.2775C28.8396 43.7138 28.4602 43.9473 27.9276 43.9473H26.8217L27.1151 41.5055ZM24.9065 42.4685H24.6781L24.7204 42.1163H24.949L24.9654 41.9801C24.9897 41.7778 25.0596 41.6242 25.1666 41.5266C25.2741 41.4288 25.4128 41.3798 25.5904 41.3798C25.7338 41.3798 25.8305 41.401 25.9193 41.4288L25.8766 41.7847C25.7977 41.7567 25.7282 41.7392 25.6396 41.7392C25.4827 41.7392 25.3901 41.8267 25.3669 42.0184L25.3546 42.1195H25.8325L25.7907 42.4685H25.3197L25.1421 43.9473H24.7289L24.9065 42.4685ZM23.998 43.0368L23.9989 43.0299C24.0378 42.7057 23.8418 42.437 23.5174 42.437C23.1865 42.437 22.9428 42.702 22.9043 43.023L22.9034 43.0299C22.8648 43.3507 23.0612 43.6194 23.382 43.6194C23.7166 43.6194 23.9598 43.3544 23.998 43.0368ZM22.4895 43.0368L22.4904 43.0299C22.5536 42.5032 23.0156 42.0673 23.5686 42.0673C24.1217 42.0673 24.4762 42.4963 24.413 43.023L24.4121 43.0299C24.3492 43.553 23.8872 43.9893 23.3308 43.9893C22.7813 43.9893 22.4268 43.5601 22.4895 43.0368ZM20.3689 43.438L20.4853 42.4685H20.2569L20.3005 42.1057H20.5289L20.5899 41.5998H21.0028L20.9419 42.1057H21.4268L21.383 42.4685H20.8983L20.7899 43.3716C20.7702 43.5356 20.8443 43.6019 20.9842 43.6019C21.0764 43.6019 21.1607 43.581 21.2477 43.5392L21.2061 43.8846C21.0968 43.9438 20.9797 43.9787 20.8225 43.9787C20.519 43.9787 20.3203 43.8428 20.3689 43.438ZM19.1191 42.1057H19.5321L19.4822 42.5206C19.6281 42.2451 19.8588 42.0568 20.1744 42.0706L20.1209 42.5172H20.0971C19.7351 42.5172 19.4536 42.7578 19.395 43.246L19.3109 43.9473H18.8979L19.1191 42.1057ZM18.1679 43.0299L18.1686 43.023C18.2115 42.6671 17.9937 42.4334 17.7176 42.4334C17.4339 42.4334 17.1718 42.6568 17.1279 43.023L17.127 43.0299C17.0841 43.3859 17.295 43.6194 17.5749 43.6194C17.8512 43.6194 18.1254 43.3822 18.1679 43.0299ZM16.7105 43.0299L16.7114 43.023C16.7847 42.4127 17.2323 42.0673 17.6626 42.0673C17.9593 42.0673 18.129 42.2173 18.2376 42.3918L18.272 42.1057H18.685L18.4638 43.9473H18.0508L18.0877 43.6403C17.9317 43.8322 17.7255 43.9856 17.4319 43.9856C17.0086 43.9856 16.6372 43.6403 16.7105 43.0299ZM15.5936 42.7753C15.911 42.7753 16.1309 42.5941 16.1615 42.3392L16.1624 42.3323C16.1965 42.0464 16.0135 41.8963 15.6995 41.8963H15.2112L15.1053 42.7753H15.5936ZM14.8384 41.5055H15.7804C16.3404 41.5055 16.6495 41.8299 16.5904 42.3218L16.5895 42.3287C16.5236 42.8763 16.0592 43.1624 15.5333 43.1624H15.0588L14.9648 43.9473H14.5448L14.8384 41.5055ZM43.3734 39.025L43.8543 38.3961C44.2502 38.7261 44.6879 38.8946 45.0935 38.8946C45.4838 38.8946 45.7295 38.7261 45.7619 38.4576L45.7636 38.4422C45.8014 38.1277 45.3938 38.0207 44.9458 37.8748C44.3804 37.7061 43.7565 37.4608 43.8496 36.6863L43.8516 36.6709C43.9438 35.9042 44.6232 35.4362 45.4116 35.4362C45.9073 35.4362 46.4266 35.6126 46.8133 35.8966L46.3733 36.5559C46.0188 36.3182 45.6312 36.1724 45.3008 36.1724C44.9478 36.1724 44.7246 36.3412 44.6969 36.571L44.6953 36.5864C44.6591 36.8856 45.0723 37.0082 45.5197 37.1616C46.0755 37.3458 46.6966 37.6142 46.6092 38.3426L46.6074 38.358C46.5049 39.209 45.8086 39.6308 44.9824 39.6308C44.4193 39.6308 43.8208 39.4239 43.3734 39.025ZM39.372 38.0817L39.6818 35.5053H40.5904L40.3137 37.8057C40.2382 38.4347 40.5037 38.7871 41.0443 38.7871C41.57 38.7871 41.982 38.4193 42.0578 37.7906L42.3325 35.5053H43.2487L42.7619 39.5541H41.8458L41.9213 38.9254C41.6199 39.3089 41.2123 39.6384 40.5965 39.6384C39.7031 39.6384 39.2586 39.025 39.372 38.0817ZM38.0811 33.9561H38.9895L38.3167 39.5541H37.4082L38.0811 33.9561ZM35.0148 36.9777C35.7133 36.9777 36.1967 36.5788 36.2641 36.019L36.2659 36.0036C36.3412 35.3749 35.9381 35.0454 35.2471 35.0454H34.1734L33.9411 36.9777H35.0148ZM33.3528 34.1864H35.4253C36.6571 34.1864 37.3372 34.8996 37.2072 35.9809L37.2052 35.996C37.0606 37.2 36.0391 37.8289 34.8824 37.8289H33.8388L33.6313 39.5541H32.7076L33.3528 34.1864ZM29.9372 37.2461C29.9489 36.648 29.66 36.1802 29.0593 36.1802C28.5035 36.1802 28.0602 36.6172 27.9022 37.2461H29.9372ZM26.9651 37.5451L26.9672 37.5297C27.1063 36.3719 28.0238 35.4208 29.1577 35.4208C30.4194 35.4208 30.936 36.433 30.7957 37.5988C30.7859 37.6831 30.7679 37.7674 30.7494 37.8595H27.8358C27.8543 38.5189 28.2679 38.887 28.8538 38.887C29.2967 38.887 29.6328 38.7185 29.9857 38.4039L30.4605 38.887C30.0298 39.3472 29.4759 39.6462 28.7477 39.6462C27.5989 39.6462 26.815 38.795 26.9651 37.5451ZM24.7251 35.5053H25.6338L25.5239 36.4179C25.8447 35.8119 26.3525 35.3981 27.0472 35.4284L26.9292 36.4101H26.8768C26.0807 36.4101 25.4614 36.9393 25.3323 38.0128L25.1471 39.5541H24.2384L24.7251 35.5053ZM22.7092 37.5375L22.7112 37.5221C22.8052 36.7398 22.3261 36.2261 21.718 36.2261C21.0946 36.2261 20.5177 36.7171 20.4208 37.5221L20.4188 37.5375C20.3248 38.3194 20.7888 38.8335 21.4046 38.8335C22.0127 38.8335 22.6161 38.3118 22.7092 37.5375ZM19.5027 37.5375L19.5047 37.5221C19.6661 36.1802 20.6508 35.4208 21.5968 35.4208C22.2501 35.4208 22.6238 35.7506 22.8627 36.1343L22.9383 35.5053H23.847L23.3602 39.5541H22.4515L22.5329 38.8795C22.1892 39.3013 21.7357 39.6384 21.0901 39.6384C20.1589 39.6384 19.3415 38.8795 19.5027 37.5375ZM14.5277 36.8856L14.5298 36.8702C14.713 35.3441 15.9823 34.0943 17.5742 34.0943C18.5431 34.0943 19.087 34.4394 19.5312 34.9304L18.8541 35.628C18.4815 35.2291 18.0632 34.9607 17.4625 34.9607C16.4636 34.9607 15.6264 35.8043 15.5001 36.8548L15.4985 36.8702C15.3719 37.9208 15.998 38.772 17.0043 38.772C17.6502 38.772 18.0944 38.5111 18.5967 38.0817L19.116 38.6953C18.4977 39.2781 17.853 39.6462 16.8692 39.6462C15.3375 39.6462 14.3425 38.4269 14.5277 36.8856Z" fill="white"/>
</svg>
