<?xml version="1.0" encoding="utf-8"?>
<!-- Generator: Adobe Illustrator 16.0.0, SVG Export Plug-In . SVG Version: 6.00 Build 0)  -->
<!DOCTYPE svg PUBLIC "-//W3C//DTD SVG 1.1//EN" "http://www.w3.org/Graphics/SVG/1.1/DTD/svg11.dtd">
<svg version="1.1" id="Layer_1" xmlns="http://www.w3.org/2000/svg" xmlns:xlink="http://www.w3.org/1999/xlink" x="0px" y="0px"
	 width="68px" height="87px" viewBox="0 0 68 87" enable-background="new 0 0 68 87" xml:space="preserve">
<path fill="none" stroke="#0E79C7" d="M-194.094,67.176v-0.5c0,0,3,23.5-8.5,23.5s-10.25-11.5-10.25-11.5"/>
<circle fill="none" stroke="#0E79C7" cx="-212.884" cy="72.826" r="5.875"/>
<circle fill="none" stroke="#0E79C7" cx="-201.219" cy="36.801" r="3.875"/>
<circle fill="none" stroke="#0E79C7" cx="-187.219" cy="36.801" r="3.875"/>
<path fill="none" stroke="#0E79C7" d="M-204.991,37.201h-2.75v12.75c0,0,0.25,14.25,14.25,14.25s13.75-13.5,13.75-13.5v-13.5h-3.5"
	/>
<circle fill="#E5F2FA" stroke="#0E79C7" cx="-193.741" cy="64.201" r="2.75"/>
<path fill="none" stroke="#0E79C7" d="M-131.594-49.337c0,6.627-0.373,12-7,12h-37.75c-6.627,0-7-5.373-7-12v-14
	c0-6.627,0.373-12,7-12h37.75c6.627,0,7,5.373,7,12V-49.337z"/>
<path fill="none" stroke="#0E79C7" d="M-166.844-75.587v-4.125c0,0,0.25-1.938,1.5-1.938s7.875,0,7.875,0h7.125
	c0,0,1.125-0.188,1.875,0.875v5.188"/>
<polygon fill="none" stroke="#0E79C7" points="-157.469,-66.337 -161.156,-66.337 -161.156,-59.587 -166.906,-59.587 
	-166.906,-52.087 -160.531,-52.087 -160.531,-45.212 -153.781,-45.212 -153.781,-51.962 -147.406,-51.962 -147.406,-59.712 
	-153.906,-59.712 -153.906,-66.337 "/>
<rect x="9.167" y="44.332" fill="none" stroke="#0E79C7" width="9.666" height="21.167"/>
<rect x="23.445" y="40.165" fill="none" stroke="#0E79C7" width="22.833" height="11.333"/>
<rect x="23.445" y="33.499" fill="none" stroke="#0E79C7" width="22.833" height="6.667"/>
<line fill="none" stroke="#0E79C7" x1="14" y1="44.665" x2="14" y2="32.499"/>
<circle fill="none" stroke="#0E79C7" cx="14" cy="27" r="5.499"/>
<line fill="none" stroke="#0E79C7" x1="29.61" y1="30.501" x2="29.61" y2="35.667"/>
<line fill="none" stroke="#0E79C7" x1="41.11" y1="30.915" x2="41.11" y2="36.082"/>
<rect x="49.167" y="44.332" fill="none" stroke="#0E79C7" width="9.666" height="21.167"/>
<path fill="none" stroke="#0E79C7" d="M48.501,26"/>
<path fill="none" stroke="#0E79C7" d="M48.501,27c0-3.037,2.462-5.499,5.499-5.499s5.499,2.462,5.499,5.499
	c0,3.037-2.462,5.499-5.499,5.499v12.167"/>
<path fill="none" stroke="#0E79C7" d="M49-83.625l-14,6.75L38.125-66.5l5.75-3.75L38.5-51c0,0,5.125,0.125,8,2.75s2.5,8.5,2.5,8.5
	h14.375c0,0-0.125-5,2.875-7.5s8-2.75,8-2.75l-4.375-19l5.875,2.375L77.125-77L64-83.625c0,0-2.625,5.5-4.25,6S54.375-77,53-77.875
	S49-83.625,49-83.625z"/>
<path fill-rule="evenodd" clip-rule="evenodd" fill="none" stroke="#0E79C7" d="M52.808-50c-1.229-1.688-1.317-3.522-1.414-5.263
	c-0.117-2.1-0.363-4.109-1.397-5.974c-0.216-0.39-0.347-0.839-0.451-1.277c-0.993-4.194,0.315-5.664,4.517-4.932
	c1.836,0.32,3.596,0.012,5.394-0.172c2.764-0.283,3.958,2.038,3.54,4.578c-0.266,1.613-1.235,3.135-1.599,4.799
	c-0.43,1.963-0.605,3.972-0.908,5.957c-0.111,0.732-0.105,1.541-0.837,2.184c-0.722-0.865-0.53-1.858-0.568-2.781
	c-0.052-1.295-0.02-2.609-0.694-3.773c-0.5-0.864-1.167-1.635-2.287-1.512c-1.054,0.116-1.777,0.801-2.09,1.795
	c-0.426,1.352-0.885,2.703-0.835,4.163C53.201-51.534,53.296-50.815,52.808-50z"/>
<path fill-rule="evenodd" clip-rule="evenodd" fill="none" stroke="#0E79C7" d="M175.52-42.715
	c-2.847-3.913-3.053-8.162-3.275-12.196c-0.271-4.866-0.841-9.522-3.237-13.844c-0.501-0.903-0.805-1.945-1.044-2.959
	c-2.301-9.72,0.731-13.126,10.466-11.43c4.255,0.741,8.334,0.027,12.501-0.399c2.438-0.25,5.572-0.468,7.04,1.913
	c1.505,2.443,1.393,7.703,0.689,10.307c-0.973,3.598-2.705,6.792-3.443,10.543c-0.832,4.225-1.246,8.518-1.894,12.772
	c-0.258,1.695-0.245,3.57-1.939,5.061c-1.673-2.004-1.229-4.305-1.316-6.445c-0.12-3.001-0.046-6.046-1.608-8.744
	c-1.16-2.003-2.703-3.788-5.299-3.503c-2.443,0.268-4.118,1.855-4.844,4.161c-0.988,3.133-2.05,6.263-1.936,9.646
	C176.432-46.27,176.651-44.604,175.52-42.715z"/>
<path fill-rule="evenodd" clip-rule="evenodd" fill="none" stroke="#0E79C7" d="M304.436-51.166
	c-1.637-3.422-1.19-6.727-0.787-9.869c0.484-3.79,0.708-7.46-0.523-11.134c-0.259-0.769-0.343-1.615-0.384-2.43
	c-0.389-7.821,2.434-10.016,9.698-7.321c3.174,1.177,6.42,1.208,9.694,1.474c4.899,0.396,5.987,1.85,5.11,6.581
	c-0.679,3.693-2.886,6.123-4.33,9.4c-1.649,3.741-2.656,7.884-3.999,11.755c-0.44,1.271-0.698,2.718-2.217,3.625
	c-1.004-1.783-0.335-3.494-0.095-5.156c0.333-2.331,0.824-4.668,0.006-6.97c-0.61-1.71-1.544-3.306-3.587-3.456
	c-1.922-0.142-3.438,0.844-4.328,2.517c-1.207,2.275-2.473,4.537-2.866,7.161C305.646-53.776,305.578-52.461,304.436-51.166z"/>
<path fill-rule="evenodd" clip-rule="evenodd" fill="none" stroke="#0E79C7" d="M289-39.75v-20.5h6.5c0,0,5,15.875,15.875,15.875
	S327.52-60.25,327.52-60.25h5.98v20.5H289z"/>
<g>
	<path fill-rule="evenodd" clip-rule="evenodd" fill="none" stroke="#0E79C7" d="M475.929-51.93l14-26.25c0,0,2.5-2.75,5.5-1.5
		s1.5,6,1.5,6l-10.313,21.75H475.929z"/>
	<path fill-rule="evenodd" clip-rule="evenodd" fill="none" stroke="#0E79C7" d="M478.929-51.93h6.25l-4.5,10.25
		c0,0-3.75,6.25-10,4.25L478.929-51.93z"/>
</g>
<path fill-rule="evenodd" clip-rule="evenodd" fill="none" stroke="#0E79C7" d="M590.443-41.2
	c-2.847-3.913-3.053-8.162-3.275-12.196c-0.271-4.866-0.841-9.522-3.237-13.844c-0.501-0.903-0.805-1.945-1.044-2.959
	c-2.301-9.72,0.73-13.126,10.466-11.43c4.255,0.741,8.334,0.027,12.501-0.399c2.438-0.25,5.572-0.468,7.041,1.913
	c1.505,2.443,1.393,7.703,0.688,10.307c-0.973,3.598-2.704,6.792-3.442,10.543c-0.832,4.225-1.246,8.518-1.895,12.772
	c-0.258,1.695-0.244,3.57-1.939,5.061c-1.674-2.004-1.229-4.305-1.316-6.445c-0.119-3.001-0.046-6.046-1.607-8.744
	c-1.16-2.003-2.703-3.788-5.299-3.503c-2.443,0.268-4.118,1.855-4.844,4.161c-0.988,3.133-2.051,6.263-1.937,9.646
	C591.355-44.755,591.575-43.09,590.443-41.2z"/>
<path fill-rule="evenodd" clip-rule="evenodd" fill="none" stroke="#0E79C7" d="M590.513-54.903
	c-2.011-1.926-2.156-4.017-2.315-6.002c-0.189-2.395-0.592-4.686-2.285-6.813c-0.353-0.445-0.567-0.957-0.737-1.456
	c-1.626-4.784,0.517-6.46,7.392-5.625c3.004,0.365,10.002,0.013,12.943-0.196c1.722-0.123,3.936-0.23,4.974,0.941
	c1.063,1.202,0.984,3.791,0.486,5.073c-0.688,1.771-1.91,3.343-2.433,5.189c-0.588,2.079-0.88,4.192-1.338,6.285
	c-0.183,0.834-0.172,1.757-1.369,2.491c-1.183-0.986-0.868-2.119-0.931-3.172c-0.083-1.477-0.031-2.976-1.134-4.304
	c-0.819-0.985-1.909-1.864-3.743-1.723c-1.727,0.132-7.022-0.087-7.534,1.047c-0.699,1.542-1.449,4.083-1.368,5.748
	C591.157-56.652,591.312-55.833,590.513-54.903z"/>
<g>
	<rect x="668.09" y="-81.452" fill-rule="evenodd" clip-rule="evenodd" fill="none" stroke="#0E79C7" width="44.5" height="36.5"/>
	<line fill="none" stroke="#0E79C7" x1="677.763" y1="-70.79" x2="700.43" y2="-70.79"/>
	<line fill="none" stroke="#0E79C7" x1="674.097" y1="-65.456" x2="706.097" y2="-65.456"/>
	<line fill="none" stroke="#0E79C7" x1="675.763" y1="-60.79" x2="703.097" y2="-60.79"/>
	<line fill="none" stroke="#0E79C7" x1="689.43" y1="-74.456" x2="690.34" y2="-50.123"/>
	<line fill="none" stroke="#0E79C7" x1="679.43" y1="-54.456" x2="685.763" y2="-54.456"/>
	<line fill="none" stroke="#0E79C7" x1="694.097" y1="-54.456" x2="701.097" y2="-54.456"/>
</g>
</svg>
