<svg width="20" height="12" viewBox="0 0 20 12" fill="none" xmlns="http://www.w3.org/2000/svg">
<path d="M12.7304 0.259091C12.4994 0.554258 12.5484 0.983592 12.8409 1.21736L14.9068 2.86966L17.6205 5.32014L0.673946 5.32014C0.301479 5.32014 8.3588e-07 5.62577 7.86497e-07 6.00235C7.37115e-07 6.37892 0.301479 6.68455 0.673946 6.68455L17.4511 6.68455L12.743 10.8019C12.4617 11.0475 12.4298 11.4786 12.6733 11.7638C12.9168 12.049 13.3423 12.0803 13.624 11.8338L19.7664 6.46216C19.9133 6.3339 19.9982 6.14789 20 5.95141C20 5.94959 20 5.94777 20 5.94595C20 5.7513 19.9182 5.56619 19.7749 5.43703L15.7735 1.82543L13.677 0.147208C13.385 -0.0865604 12.9613 -0.0365317 12.7304 0.259091Z" fill="#0079C8"/>
</svg>
