<svg width="20" height="12" viewBox="0 0 20 12" fill="none" xmlns="http://www.w3.org/2000/svg">
<path d="M7.26962 11.7409C7.50056 11.4457 7.45159 11.0164 7.1591 10.7826L5.09323 9.13034L2.37948 6.67986L19.3261 6.67986C19.6985 6.67986 20 6.37423 20 5.99765C20 5.62108 19.6985 5.31545 19.3261 5.31545L2.54886 5.31545L7.25704 1.19811C7.5383 0.952519 7.5702 0.521366 7.32668 0.236205C7.08317 -0.048957 6.65768 -0.0803381 6.37597 0.166165L0.233637 5.53785C0.0867174 5.6661 0.00179647 5.85212 -2.64392e-07 6.04859C-2.64472e-07 6.05041 -2.64551e-07 6.05223 -2.64631e-07 6.05405C-2.7314e-07 6.2487 0.0817754 6.43381 0.225101 6.56297L4.22654 10.1746L6.32296 11.8528C6.615 12.0866 7.03869 12.0365 7.26962 11.7409Z" fill="#929BA2"/>
</svg>
