<svg width="13" height="14" viewBox="0 0 13 14" fill="none" xmlns="http://www.w3.org/2000/svg">
<path fill-rule="evenodd" clip-rule="evenodd" d="M8.68291 1.68H12.02C12.5678 1.68 13.0161 2.07789 12.9996 2.54947V3.15369C12.9996 3.64 12.5513 4.03789 12.0034 4.03789H11.854L11.1401 12.7032C11.0903 13.4253 10.3929 14 9.57943 14H3.42004C2.60654 14 1.92584 13.4253 1.85948 12.7032L1.14557 4.05263H0.996102C0.448303 4.05263 0 3.65474 0 3.16842V2.56421C0 2.07789 0.448303 1.68 0.996102 1.68H4.31656L4.56561 0.707364C4.68185 0.294742 5.09684 0 5.57836 0L7.43776 0.01474C7.91929 0.01474 8.35093 0.324212 8.45052 0.736844L8.68291 1.68ZM5.57828 0.722104C5.4786 0.722104 5.37902 0.781054 5.36245 0.869475L5.1632 1.68H7.86932L7.67015 0.884205C7.63693 0.795785 7.55391 0.736844 7.45433 0.736844L5.57828 0.722104ZM12.0199 3.31579C12.1029 3.31579 12.186 3.25685 12.186 3.16842V2.56421C12.186 2.49052 12.1195 2.41684 12.0199 2.41684H0.996102C0.913086 2.41684 0.83007 2.47579 0.83007 2.56421V3.16842C0.83007 3.24211 0.896518 3.31579 0.996102 3.31579H12.0199ZM10.3431 12.659C10.3099 13.0126 9.97785 13.2779 9.59608 13.2779H3.43661C3.03819 13.2779 2.72278 13.0126 2.68955 12.659L1.97564 4.05263H11.0404L10.3431 12.659Z" fill="#ED6F00"/>
</svg>
